<?xml version="1.0" standalone="no"?>
<!DOCTYPE svg PUBLIC "-//W3C//DTD SVG 20010904//EN"
 "http://www.w3.org/TR/2001/REC-SVG-20010904/DTD/svg10.dtd">
<svg version="1.0" xmlns="http://www.w3.org/2000/svg"
 width="371.000000pt" height="191.000000pt" viewBox="0 0 371.000000 191.000000"
 preserveAspectRatio="xMidYMid meet">

<g transform="translate(0.000000,191.000000) scale(0.100000,-0.100000)"
fill="#000000" stroke="none">
<path d="M1310 1411 c-123 -127 -272 -218 -457 -280 l-82 -28 25 -34 c13 -19
30 -51 36 -72 9 -28 15 -36 27 -32 9 4 21 7 26 8 21 4 27 -442 10 -730 l-5
-83 62 0 63 0 -3 434 -3 434 63 38 c114 69 183 122 261 199 l76 75 72 -70
c114 -111 239 -188 373 -229 110 -34 112 -34 108 48 -4 69 -4 70 -35 76 -83
17 -233 87 -307 144 -19 15 -46 34 -60 42 -14 9 -55 46 -91 83 -36 36 -68 66
-70 65 -2 0 -42 -40 -89 -88z"/>
<path d="M1300 903 c-14 -2 -40 -17 -59 -32 -31 -25 -35 -35 -39 -88 -4 -53
-1 -62 23 -91 25 -30 76 -59 131 -76 11 -3 34 -20 50 -37 24 -25 29 -39 28
-75 -2 -104 -124 -149 -204 -74 -31 29 -31 29 -39 7 -14 -36 29 -57 115 -57
87 0 127 23 162 90 44 86 9 163 -89 195 -26 9 -66 29 -88 46 -39 28 -41 31
-41 83 0 48 3 57 28 74 15 10 35 21 44 25 27 9 85 -12 106 -38 l20 -25 6 23
c3 12 0 27 -7 34 -13 13 -107 24 -147 16z"/>
<path d="M1770 901 c-90 -19 -166 -84 -188 -160 -16 -53 -15 -165 2 -206 24
-57 63 -100 115 -129 43 -23 61 -26 143 -27 55 0 106 5 124 12 50 22 103 69
131 116 23 39 26 57 26 132 1 68 -3 94 -20 126 -26 50 -67 92 -114 115 -41 21
-165 33 -219 21z m175 -27 c47 -20 82 -63 105 -134 26 -76 22 -154 -12 -231
-24 -58 -51 -84 -107 -104 -104 -36 -209 -5 -263 78 -31 49 -32 54 -33 156 0
98 2 109 28 154 32 55 61 76 125 93 50 13 108 9 157 -12z"/>
<path d="M2792 870 c-11 -25 -59 -133 -106 -240 -48 -107 -93 -207 -101 -221
-14 -25 -13 -26 8 -22 19 4 30 22 58 101 l35 97 102 3 102 3 26 -58 c14 -32
32 -79 40 -104 13 -43 16 -45 49 -45 19 1 35 2 35 2 0 1 -13 29 -30 62 -16 34
-30 64 -30 67 0 3 -8 25 -19 48 -10 23 -31 71 -46 107 -15 36 -40 94 -55 130
-15 36 -32 76 -37 90 -10 25 -10 24 -31 -20z m18 -79 c0 -9 4 -21 9 -26 9 -10
61 -136 61 -148 0 -8 -164 -9 -172 -1 -4 3 7 33 22 67 16 34 36 79 44 100 15
38 36 43 36 8z"/>
<path d="M2245 641 l0 -260 133 2 c113 2 132 4 132 18 0 13 -12 15 -77 12 -43
-2 -88 -5 -100 -7 -12 -2 -24 3 -28 11 -3 8 -4 120 -2 249 l2 234 -30 0 -30 0
0 -259z"/>
<path d="M3141 640 l-2 -257 32 -1 31 -1 -7 125 c-6 114 -6 124 11 131 20 8
76 -50 173 -177 51 -68 60 -75 92 -76 l36 -1 -98 122 c-55 67 -99 126 -99 131
0 5 20 16 45 23 115 34 143 174 45 224 -28 14 -57 17 -147 16 l-111 -2 -1
-257z m230 225 c22 -15 40 -68 34 -103 -12 -70 -57 -103 -144 -105 -33 -1 -63
1 -67 5 -3 4 -3 54 1 112 l7 105 36 3 c38 3 116 -7 133 -17z"/>
<path d="M2638 293 c7 -3 16 -2 19 1 4 3 -2 6 -13 5 -11 0 -14 -3 -6 -6z"/>
<path d="M1319 281 c-6 -18 10 -123 20 -134 4 -4 4 23 -1 60 -11 82 -13 92
-19 74z"/>
<path d="M1420 215 c0 -41 3 -75 8 -75 4 0 7 34 7 75 0 41 -3 75 -7 75 -5 0
-8 -34 -8 -75z"/>
<path d="M1693 240 c0 -30 2 -43 4 -27 2 15 2 39 0 55 -2 15 -4 2 -4 -28z"/>
<path d="M1793 215 c0 -44 2 -61 4 -37 2 23 2 59 0 80 -2 20 -4 1 -4 -43z"/>
<path d="M1890 288 c0 -5 8 -16 18 -26 9 -10 36 -39 60 -65 46 -51 52 -55 52
-32 0 8 -4 14 -9 13 -5 -2 -34 24 -64 57 -31 33 -56 57 -57 53z"/>
<path d="M2012 270 c0 -14 2 -19 5 -12 2 6 2 18 0 25 -3 6 -5 1 -5 -13z"/>
<path d="M2587 218 c8 -97 13 -99 13 -5 0 43 -4 77 -9 77 -6 0 -7 -30 -4 -72z"/>
<path d="M2693 274 c19 -23 22 -65 6 -97 -10 -21 -10 -21 5 -3 24 29 20 79 -6
102 -23 19 -23 19 -5 -2z"/>
<path d="M2803 215 c0 -44 2 -61 4 -37 2 23 2 59 0 80 -2 20 -4 1 -4 -43z"/>
<path d="M3050 253 c0 -43 5 -41 13 5 4 18 2 32 -3 32 -6 0 -10 -16 -10 -37z"/>
<path d="M3480 253 c-56 -84 -62 -93 -57 -93 3 0 26 29 51 65 25 36 42 65 38
65 -4 0 -18 -17 -32 -37z"/>
<path d="M1190 271 c0 -6 4 -13 10 -16 6 -3 7 1 4 9 -7 18 -14 21 -14 7z"/>
<path d="M1580 278 c0 -10 91 -100 96 -96 2 2 -19 26 -46 53 -28 27 -50 46
-50 43z"/>
<path d="M2230 278 c0 -4 4 -18 9 -32 6 -15 6 -37 1 -58 -9 -30 -8 -31 5 -14
19 25 19 67 0 92 -8 10 -15 16 -15 12z"/>
<path d="M2327 273 c-4 -3 -7 -10 -7 -14 0 -12 30 -39 43 -39 6 0 1 7 -11 16
-13 9 -21 22 -18 30 6 15 3 18 -7 7z"/>
<path d="M2096 248 c-10 -38 -7 -55 15 -79 l20 -24 -11 24 c-7 13 -10 41 -8
62 4 42 -6 53 -16 17z"/>
<path d="M3200 249 c0 -5 5 -7 10 -4 6 3 10 8 10 11 0 2 -4 4 -10 4 -5 0 -10
-5 -10 -11z"/>
<path d="M1210 235 c0 -12 38 -75 45 -75 3 0 -1 12 -9 28 -23 41 -36 58 -36
47z"/>
<path d="M2392 198 c7 -15 15 -23 17 -17 2 6 -4 18 -13 27 -15 15 -15 15 -4
-10z"/>
<path d="M3052 180 c0 -14 2 -19 5 -12 2 6 2 18 0 25 -3 6 -5 1 -5 -13z"/>
<path d="M1572 170 c0 -14 2 -19 5 -12 2 6 2 18 0 25 -3 6 -5 1 -5 -13z"/>
<path d="M3210 171 c0 -6 4 -13 10 -16 6 -3 7 1 4 9 -7 18 -14 21 -14 7z"/>
<path d="M1685 160 c3 -5 8 -10 11 -10 2 0 4 5 4 10 0 6 -5 10 -11 10 -5 0 -7
-4 -4 -10z"/>
</g>
</svg>
