<?xml version="1.0" encoding="UTF-8"?>
<!DOCTYPE svg PUBLIC "-//W3C//DTD SVG 1.1//EN" "http://www.w3.org/Graphics/SVG/1.1/DTD/svg11.dtd">
<svg xmlns="http://www.w3.org/2000/svg" version="1.1" width="371px" height="191px" style="shape-rendering:geometricPrecision; text-rendering:geometricPrecision; image-rendering:optimizeQuality; fill-rule:evenodd; clip-rule:evenodd" xmlns:xlink="http://www.w3.org/1999/xlink">
<g><path style="opacity:0.034" fill="#fdf7e4" d="M 96.5,24.5 C 97.4284,21.4765 98.7617,18.6432 100.5,16C 99.119,12.9281 97.4523,12.7614 95.5,15.5C 95.5,14.1667 95.5,12.8333 95.5,11.5C 98.8852,10.7896 101.219,11.9563 102.5,15C 101.356,18.8068 99.3557,21.9735 96.5,24.5 Z"/></g>
<g><path style="opacity:1" fill="#ebc84d" d="M 96.5,24.5 C 95.6851,25.4293 94.8518,26.4293 94,27.5C 93.8333,26.8333 93.6667,26.1667 93.5,25.5C 94.7951,22.2844 95.4618,18.9511 95.5,15.5C 97.4523,12.7614 99.119,12.9281 100.5,16C 98.7617,18.6432 97.4284,21.4765 96.5,24.5 Z"/></g>
<g><path style="opacity:0.275" fill="#fcf8ed" d="M 52.5,26.5 C 48.3898,23.1396 46.7231,18.9729 47.5,14C 49.3969,12.8903 51.2302,12.7236 53,13.5C 54.8434,19.6938 56.6767,25.8605 58.5,32C 57.9747,32.6924 57.3081,33.1924 56.5,33.5C 54.3841,31.6001 53.0507,29.2668 52.5,26.5 Z"/></g>
<g><path style="opacity:1" fill="#eec546" d="M 52.5,26.5 C 51.7357,22.7301 50.0691,19.3967 47.5,16.5C 48.6197,14.4038 50.1197,14.0705 52,15.5C 53.1632,19.1618 54.3299,22.8284 55.5,26.5C 55.3333,27.1667 55.1667,27.8333 55,28.5C 54.2917,27.6195 53.4584,26.9528 52.5,26.5 Z"/></g>
<g><path style="opacity:0.014" fill="#fefffe" d="M 59.5,33.5 C 59.8966,32.475 60.5632,32.3083 61.5,33C 60.9056,33.4643 60.2389,33.631 59.5,33.5 Z"/></g>
<g><path style="opacity:0.373" fill="#fefaeb" d="M 95.5,15.5 C 95.4618,18.9511 94.7951,22.2844 93.5,25.5C 93.6667,26.1667 93.8333,26.8333 94,27.5C 94.8518,26.4293 95.6851,25.4293 96.5,24.5C 95.6382,27.8852 93.9716,30.8852 91.5,33.5C 92.5076,35.4992 93.841,37.1658 95.5,38.5C 91.2939,37.0322 86.9606,36.0322 82.5,35.5C 74.7982,34.0168 67.1315,34.6835 59.5,37.5C 60.7574,36.1819 62.0907,34.8485 63.5,33.5C 64.1667,33.8333 64.8333,34.1667 65.5,34.5C 73.5935,31.9145 81.5935,32.2479 89.5,35.5C 91.2102,28.6398 93.2102,21.9731 95.5,15.5 Z"/></g>
<g><path style="opacity:0.373" fill="#fff7e2" d="M 59.5,37.5 C 57.8333,38.8333 56.1667,40.1667 54.5,41.5C 53.8333,41.5 53.1667,41.5 52.5,41.5C 54.3403,39.3311 56.6737,37.9977 59.5,37.5 Z"/></g>
<g><path style="opacity:1" fill="#fcc217" d="M 82.5,35.5 C 86.9606,36.0322 91.2939,37.0322 95.5,38.5C 96.6594,40.2503 98.326,41.2503 100.5,41.5C 100.5,41.8333 100.5,42.1667 100.5,42.5C 99.4479,44.256 97.7812,44.9227 95.5,44.5C 95.5858,43.5041 95.2524,42.6708 94.5,42C 91.9568,41.8603 89.6234,41.1937 87.5,40C 79.4233,39.9021 71.4233,39.2355 63.5,38C 69.7469,36.5449 76.0802,35.7116 82.5,35.5 Z"/></g>
<g><path style="opacity:0.059" fill="#fff6e0" d="M 95.5,38.5 C 97.674,38.7497 99.3406,39.7497 100.5,41.5C 98.326,41.2503 96.6594,40.2503 95.5,38.5 Z"/></g>
<g><path style="opacity:0.026" fill="#edf5ee" d="M 154.5,53.5 C 149.042,49.8761 144.375,45.3761 140.5,40C 139.423,39.5304 138.423,39.6971 137.5,40.5C 138.211,37.07 139.877,36.7367 142.5,39.5C 146.23,44.5506 150.23,49.2172 154.5,53.5 Z"/></g>
<g><path style="opacity:1" fill="#f4c330" d="M 82.5,35.5 C 76.0802,35.7116 69.7469,36.5449 63.5,38C 71.4233,39.2355 79.4233,39.9021 87.5,40C 89.6234,41.1937 91.9568,41.8603 94.5,42C 95.2524,42.6708 95.5858,43.5041 95.5,44.5C 82.7911,38.6319 70.4577,39.2986 58.5,46.5C 58.67,45.1779 58.3366,44.0113 57.5,43C 60.0432,42.8603 62.3766,42.1937 64.5,41C 63.5704,40.0093 62.4038,39.5093 61,39.5C 58.941,40.6182 56.7743,41.2849 54.5,41.5C 56.1667,40.1667 57.8333,38.8333 59.5,37.5C 67.1315,34.6835 74.7982,34.0168 82.5,35.5 Z"/></g>
<g><path style="opacity:0.069" fill="#fcfffc" d="M 137.5,40.5 C 137.167,41.5 136.5,42.1667 135.5,42.5C 135.5,41.1667 136.167,40.5 137.5,40.5 Z"/></g>
<g><path style="opacity:0.053" fill="#fef5de" d="M 95.5,44.5 C 99.4133,47.0684 103.08,50.0684 106.5,53.5C 107.72,53.1131 108.387,52.2798 108.5,51C 107.259,49.2691 106.259,47.4358 105.5,45.5C 107.129,46.6253 108.629,47.9586 110,49.5C 110.711,51.3668 110.211,52.8668 108.5,54C 109.167,54.3333 109.833,54.6667 110.5,55C 108.833,55.3333 107.167,55.6667 105.5,56C 103.946,57.892 102.112,59.392 100,60.5C 98.2509,60.2517 97.4176,59.2517 97.5,57.5C 100.729,58.9932 103.062,57.9932 104.5,54.5C 103.389,52.4478 101.723,51.1145 99.5,50.5C 91.7101,44.1325 82.7101,41.6325 72.5,43C 69.135,43.5053 66.135,44.672 63.5,46.5C 53.1892,50.8166 46.8559,58.4833 44.5,69.5C 43.8333,69.5 43.5,69.1667 43.5,68.5C 45.278,59.0411 50.278,51.7078 58.5,46.5C 70.4577,39.2986 82.7911,38.6319 95.5,44.5 Z"/></g>
<g><path style="opacity:0.031" fill="#fef7e1" d="M 100.5,42.5 C 100.5,42.1667 100.5,41.8333 100.5,41.5C 102.749,42.0798 104.415,43.4131 105.5,45.5C 103.589,44.925 101.922,43.925 100.5,42.5 Z"/></g>
<g><path style="opacity:0.992" fill="#e4b134" d="M 99.5,50.5 C 95.1881,48.6791 90.8547,46.8458 86.5,45C 78.6908,44.0767 71.0241,44.5767 63.5,46.5C 66.135,44.672 69.135,43.5053 72.5,43C 82.7101,41.6325 91.7101,44.1325 99.5,50.5 Z"/></g>
<g><path style="opacity:1" fill="#f8d42d" d="M 99.5,50.5 C 101.723,51.1145 103.389,52.4478 104.5,54.5C 103.062,57.9932 100.729,58.9932 97.5,57.5C 96.1667,56.8333 95.1667,55.8333 94.5,54.5C 92.5156,51.8361 89.8489,50.1695 86.5,49.5C 78.1187,45.0461 70.1187,45.7127 62.5,51.5C 62.5,52.1667 62.1667,52.5 61.5,52.5C 58.5,53.5 56.5,55.5 55.5,58.5C 53.7376,59.2623 52.7376,60.5956 52.5,62.5C 51.6618,62.1583 51.3284,61.4916 51.5,60.5C 51.7086,59.0783 52.2086,57.745 53,56.5C 56.3955,52.9349 59.8955,49.6015 63.5,46.5C 71.0241,44.5767 78.6908,44.0767 86.5,45C 90.8547,46.8458 95.1881,48.6791 99.5,50.5 Z"/></g>
<g><path style="opacity:1" fill="#f3c535" d="M 100.5,42.5 C 101.922,43.925 103.589,44.925 105.5,45.5C 106.259,47.4358 107.259,49.2691 108.5,51C 108.387,52.2798 107.72,53.1131 106.5,53.5C 103.08,50.0684 99.4133,47.0684 95.5,44.5C 97.7812,44.9227 99.4479,44.256 100.5,42.5 Z"/></g>
<g><path style="opacity:0.51" fill="#fef4da" d="M 52.5,41.5 C 49.1383,45.1925 45.8049,48.8592 42.5,52.5C 44.4416,47.5588 47.7749,43.8922 52.5,41.5 Z"/></g>
<g><path style="opacity:0.914" fill="#aacaae" d="M 135.5,42.5 C 135.167,43.8333 134.833,45.1667 134.5,46.5C 133.609,47.1098 132.609,47.4431 131.5,47.5C 132.604,45.6115 133.937,43.9448 135.5,42.5 Z"/></g>
<g><path style="opacity:0.914" fill="#a3c7a9" d="M 131.5,47.5 C 131.5,48.1667 131.5,48.8333 131.5,49.5C 130.395,50.6005 129.062,51.2671 127.5,51.5C 128.5,49.8333 129.833,48.5 131.5,47.5 Z"/></g>
<g><path style="opacity:0.376" fill="#fef7d1" d="M 86.5,49.5 C 78.5058,47.7157 70.5058,48.3823 62.5,51.5C 70.1187,45.7127 78.1187,45.0461 86.5,49.5 Z"/></g>
<g><path style="opacity:1" fill="#f7c325" d="M 58.5,46.5 C 50.278,51.7078 45.278,59.0411 43.5,68.5C 43.1667,68.5 42.8333,68.5 42.5,68.5C 43.5693,64.3881 44.5693,60.2214 45.5,56C 45.3176,53.4219 44.3176,52.9219 42.5,54.5C 42.5,53.8333 42.5,53.1667 42.5,52.5C 45.8049,48.8592 49.1383,45.1925 52.5,41.5C 53.1667,41.5 53.8333,41.5 54.5,41.5C 56.7743,41.2849 58.941,40.6182 61,39.5C 62.4038,39.5093 63.5704,40.0093 64.5,41C 62.3766,42.1937 60.0432,42.8603 57.5,43C 58.3366,44.0113 58.67,45.1779 58.5,46.5 Z"/></g>
<g><path style="opacity:0.033" fill="#fffdf1" d="M 86.5,49.5 C 89.8489,50.1695 92.5156,51.8361 94.5,54.5C 91.4887,53.3307 88.822,51.664 86.5,49.5 Z"/></g>
<g><path style="opacity:0.388" fill="#e7f3ea" d="M 127.5,51.5 C 126.833,52.8333 125.833,53.8333 124.5,54.5C 124.5,52.5 125.5,51.5 127.5,51.5 Z"/></g>
<g><path style="opacity:0.298" fill="#fef6dd" d="M 42.5,52.5 C 42.5,53.1667 42.5,53.8333 42.5,54.5C 41.1667,56.1667 39.8333,57.8333 38.5,59.5C 38.9977,56.6737 40.3311,54.3403 42.5,52.5 Z"/></g>
<g><path style="opacity:1" fill="#279039" d="M 143.5,58.5 C 143.586,57.5041 143.252,56.6708 142.5,56C 140.866,55.5065 139.199,55.3398 137.5,55.5C 137.5,56.5 137.5,57.5 137.5,58.5C 135.856,58.2865 134.356,58.6198 133,59.5C 132.79,56.7658 131.956,54.2658 130.5,52C 131.252,51.3292 131.586,50.4959 131.5,49.5C 131.5,48.8333 131.5,48.1667 131.5,47.5C 132.609,47.4431 133.609,47.1098 134.5,46.5C 135.659,45.5442 136.826,44.5442 138,43.5C 138.5,43.6667 139,43.8333 139.5,44C 138.167,44.6667 138.167,45.3333 139.5,46C 140.449,46.6172 141.282,46.4506 142,45.5C 141.695,47.4432 141.695,49.4432 142,51.5C 143.416,47.8652 145.416,47.5318 148,50.5C 148.667,52.1667 148.667,53.8333 148,55.5C 147.333,56.8333 146.667,56.8333 146,55.5C 145.764,57.1193 144.931,58.1193 143.5,58.5 Z"/></g>
<g><path style="opacity:0.096" fill="#fbf7e7" d="M 22.5,56.5 C 19.4552,56.4921 16.4552,56.1587 13.5,55.5C 13.0162,52.2023 14.0162,49.5357 16.5,47.5C 22.7603,50.4501 28.427,54.1168 33.5,58.5C 33,58.8333 32.5,59.1667 32,59.5C 28.7262,58.4256 25.5595,57.4256 22.5,56.5 Z"/></g>
<g><path style="opacity:1" fill="#efc53c" d="M 22.5,56.5 C 20.0948,55.2318 17.4282,54.5651 14.5,54.5C 14.3832,52.5165 15.0499,50.8498 16.5,49.5C 20.4964,51.1627 24.1631,53.3294 27.5,56C 25.8659,56.4935 24.1992,56.6602 22.5,56.5 Z"/></g>
<g><path style="opacity:0.529" fill="#def0e3" d="M 124.5,54.5 C 124.027,55.9063 123.027,56.573 121.5,56.5C 121.973,55.0937 122.973,54.427 124.5,54.5 Z"/></g>
<g><path style="opacity:0.047" fill="#fefae3" d="M 61.5,52.5 C 59.8333,54.8333 57.8333,56.8333 55.5,58.5C 56.5,55.5 58.5,53.5 61.5,52.5 Z"/></g>
<g><path style="opacity:1" fill="#2f8e3f" d="M 154.5,53.5 C 156.46,55.1563 158.46,56.823 160.5,58.5C 160.5,59.1667 160.5,59.8333 160.5,60.5C 159.292,59.7659 157.959,59.4326 156.5,59.5C 156.286,61.1439 156.62,62.6439 157.5,64C 155.893,63.9813 154.226,63.8146 152.5,63.5C 152.5,64.5 152.5,65.5 152.5,66.5C 151.609,65.8902 150.609,65.5569 149.5,65.5C 147.167,63.8333 145.167,61.8333 143.5,59.5C 143.5,59.1667 143.5,58.8333 143.5,58.5C 144.931,58.1193 145.764,57.1193 146,55.5C 146.667,56.8333 147.333,56.8333 148,55.5C 148.667,53.8333 148.667,52.1667 148,50.5C 145.416,47.5318 143.416,47.8652 142,51.5C 141.695,49.4432 141.695,47.4432 142,45.5C 141.282,46.4506 140.449,46.6172 139.5,46C 138.167,45.3333 138.167,44.6667 139.5,44C 139,43.8333 138.5,43.6667 138,43.5C 136.826,44.5442 135.659,45.5442 134.5,46.5C 134.833,45.1667 135.167,43.8333 135.5,42.5C 136.5,42.1667 137.167,41.5 137.5,40.5C 138.423,39.6971 139.423,39.5304 140.5,40C 144.375,45.3761 149.042,49.8761 154.5,53.5 Z"/></g>
<g><path style="opacity:0.004" fill="#fefffe" d="M 34.5,57.5 C 35.8333,58.1667 35.8333,58.1667 34.5,57.5 Z"/></g>
<g><path style="opacity:1" fill="#2f8e40" d="M 131.5,49.5 C 131.586,50.4959 131.252,51.3292 130.5,52C 131.956,54.2658 132.79,56.7658 133,59.5C 134.356,58.6198 135.856,58.2865 137.5,58.5C 137.5,57.5 137.5,56.5 137.5,55.5C 139.199,55.3398 140.866,55.5065 142.5,56C 143.252,56.6708 143.586,57.5041 143.5,58.5C 143.5,58.8333 143.5,59.1667 143.5,59.5C 142.518,58.8592 141.518,58.1925 140.5,57.5C 139.893,57.6236 139.56,57.9569 139.5,58.5C 134.833,62.5 130.5,66.8333 126.5,71.5C 124.589,72.075 122.922,73.075 121.5,74.5C 121.292,72.0799 121.626,69.7466 122.5,67.5C 121.825,65.2733 120.658,63.2733 119,61.5C 117.286,62.0762 116.119,63.2429 115.5,65C 111.523,65.9964 107.856,67.4964 104.5,69.5C 105.833,68.1667 107.167,66.8333 108.5,65.5C 109.492,65.6716 110.158,65.3382 110.5,64.5C 114.732,62.5998 118.399,59.9331 121.5,56.5C 123.027,56.573 124.027,55.9063 124.5,54.5C 125.833,53.8333 126.833,52.8333 127.5,51.5C 129.062,51.2671 130.395,50.6005 131.5,49.5 Z"/></g>
<g><path style="opacity:0.322" fill="#e0eee3" d="M 139.5,58.5 C 139.56,57.9569 139.893,57.6236 140.5,57.5C 141.518,58.1925 142.518,58.8592 143.5,59.5C 145.167,61.8333 147.167,63.8333 149.5,65.5C 150.833,67.1667 152.167,68.8333 153.5,70.5C 148.558,66.8972 143.892,62.8972 139.5,58.5 Z"/></g>
<g><path style="opacity:0.008" fill="#fffdef" d="M 55.5,58.5 C 54.8897,60.4341 53.8897,62.1007 52.5,63.5C 52.5,63.1667 52.5,62.8333 52.5,62.5C 52.7376,60.5956 53.7376,59.2623 55.5,58.5 Z"/></g>
<g><path style="opacity:0.024" fill="#ebf4ec" d="M 121.5,56.5 C 118.399,59.9331 114.732,62.5998 110.5,64.5C 113.627,61.1021 117.293,58.4354 121.5,56.5 Z"/></g>
<g><path style="opacity:1" fill="#279039" d="M 160.5,60.5 C 165.619,62.2541 165.619,64.0874 160.5,66C 162.874,68.0652 165.04,67.8985 167,65.5C 167.333,65.8333 167.667,66.1667 168,66.5C 168.129,69.0027 169.129,71.0027 171,72.5C 171.854,79.3152 170.02,80.1485 165.5,75C 166.337,73.9887 166.67,72.8221 166.5,71.5C 165.167,71.5 163.833,71.5 162.5,71.5C 162.5,70.5 162.5,69.5 162.5,68.5C 160.678,68.8308 159.011,69.4975 157.5,70.5C 155.246,69.8763 153.579,68.543 152.5,66.5C 152.5,65.5 152.5,64.5 152.5,63.5C 154.226,63.8146 155.893,63.9813 157.5,64C 156.62,62.6439 156.286,61.1439 156.5,59.5C 157.959,59.4326 159.292,59.7659 160.5,60.5 Z"/></g>
<g><path style="opacity:0.014" fill="#f5faf6" d="M 110.5,64.5 C 110.158,65.3382 109.492,65.6716 108.5,65.5C 108.409,63.3023 109.075,62.9689 110.5,64.5 Z"/></g>
<g><path style="opacity:1" fill="#28903a" d="M 121.5,74.5 C 121.167,74.5 120.833,74.5 120.5,74.5C 118.712,74.7852 117.045,74.4519 115.5,73.5C 117.988,70.7296 117.154,69.0629 113,68.5C 108.537,71.0243 108.537,73.3576 113,75.5C 113.725,77.1575 113.225,78.1575 111.5,78.5C 110.391,77.71 109.058,77.21 107.5,77C 107.833,76.6667 108.167,76.3333 108.5,76C 106.564,75.187 104.564,74.687 102.5,74.5C 102.392,72.4862 103.058,70.8195 104.5,69.5C 107.856,67.4964 111.523,65.9964 115.5,65C 116.119,63.2429 117.286,62.0762 119,61.5C 120.658,63.2733 121.825,65.2733 122.5,67.5C 121.626,69.7466 121.292,72.0799 121.5,74.5 Z"/></g>
<g><path style="opacity:0.475" fill="#fef9da" d="M 52.5,63.5 C 52.405,65.7857 51.7384,67.7857 50.5,69.5C 50.2594,67.1016 50.9261,65.1016 52.5,63.5 Z"/></g>
<g><path style="opacity:0.024" fill="#eef7f0" d="M 139.5,58.5 C 138.611,60.736 137.278,62.736 135.5,64.5C 133.058,67.6149 130.058,69.9482 126.5,71.5C 130.5,66.8333 134.833,62.5 139.5,58.5 Z"/></g>
<g><path style="opacity:1" fill="#f9c221" d="M 42.5,68.5 C 42.5,73.8333 42.5,79.1667 42.5,84.5C 42.6567,85.8734 42.49,87.2068 42,88.5C 41.3333,89.8333 40.6667,89.8333 40,88.5C 39.2797,86.8876 39.4464,85.3876 40.5,84C 39.0325,82.9025 38.1992,81.4025 38,79.5C 37.5012,75.5138 37.3345,71.5138 37.5,67.5C 38.0916,64.8728 38.4249,62.2062 38.5,59.5C 39.8333,57.8333 41.1667,56.1667 42.5,54.5C 44.3176,52.9219 45.3176,53.4219 45.5,56C 44.5693,60.2214 43.5693,64.3881 42.5,68.5 Z"/></g>
<g><path style="opacity:0.039" fill="#eef6f0" d="M 108.5,65.5 C 107.167,66.8333 105.833,68.1667 104.5,69.5C 102.167,70.1667 99.8333,70.8333 97.5,71.5C 98.7311,70.2823 99.8978,68.949 101,67.5C 101.414,67.9574 101.914,68.2907 102.5,68.5C 104.071,66.585 106.071,65.585 108.5,65.5 Z"/></g>
<g><path style="opacity:0.023" fill="#eef5ef" d="M 154.5,53.5 C 163.35,58.8321 172.35,63.9987 181.5,69C 185.242,69.9029 188.908,71.0696 192.5,72.5C 193.086,72.2907 193.586,71.9574 194,71.5C 195.659,72.8168 196.826,74.4835 197.5,76.5C 197.931,81.1259 197.931,85.7926 197.5,90.5C 195.585,90.7845 193.919,90.4511 192.5,89.5C 193.833,89.5 195.167,89.5 196.5,89.5C 195.947,84.518 195.613,79.518 195.5,74.5C 189.754,73.1287 184.088,71.462 178.5,69.5C 172.202,66.3497 166.202,62.683 160.5,58.5C 158.46,56.823 156.46,55.1563 154.5,53.5 Z"/></g>
<g><path style="opacity:1" fill="#438c4f" d="M 149.5,65.5 C 150.609,65.5569 151.609,65.8902 152.5,66.5C 153.579,68.543 155.246,69.8763 157.5,70.5C 158.736,72.8275 160.736,73.9942 163.5,74C 164.305,75.1127 164.972,76.2794 165.5,77.5C 164.833,77.5 164.167,77.5 163.5,77.5C 160.175,75.1695 156.842,72.8361 153.5,70.5C 152.167,68.8333 150.833,67.1667 149.5,65.5 Z"/></g>
<g><path style="opacity:0.282" fill="#f3faf5" d="M 97.5,71.5 C 96.4863,72.6737 95.153,73.3404 93.5,73.5C 94.287,71.8958 95.6203,71.2291 97.5,71.5 Z"/></g>
<g><path style="opacity:0.994" fill="#e69e2f" d="M 63.5,46.5 C 59.8955,49.6015 56.3955,52.9349 53,56.5C 52.2086,57.745 51.7086,59.0783 51.5,60.5C 48.8101,63.5695 47.4767,67.2361 47.5,71.5C 47.5,75.1667 47.5,78.8333 47.5,82.5C 46.6762,78.6877 46.1762,74.6877 46,70.5C 44.5585,75.3088 44.0585,80.3088 44.5,85.5C 43.8333,85.5 43.5,85.1667 43.5,84.5C 43.2213,79.4053 43.5546,74.4053 44.5,69.5C 46.8559,58.4833 53.1892,50.8166 63.5,46.5 Z"/></g>
<g><path style="opacity:0.03" fill="#eef6ef" d="M 153.5,70.5 C 156.842,72.8361 160.175,75.1695 163.5,77.5C 159.108,76.6407 155.775,74.3073 153.5,70.5 Z"/></g>
<g><path style="opacity:1" fill="#2d8e3e" d="M 160.5,58.5 C 166.202,62.683 172.202,66.3497 178.5,69.5C 178.833,70.1667 179.167,70.8333 179.5,71.5C 178.178,71.67 177.011,71.3366 176,70.5C 174.85,73.8546 175.683,74.8546 178.5,73.5C 179.938,73.7189 181.271,74.2189 182.5,75C 180.963,76.1096 180.297,77.6096 180.5,79.5C 182.665,79.1159 184.332,79.7826 185.5,81.5C 184.189,82.2575 183.689,83.2575 184,84.5C 185.622,85.0989 187.122,85.7656 188.5,86.5C 187.5,86.5 186.5,86.5 185.5,86.5C 184.5,86.5 183.5,86.5 182.5,86.5C 180.898,84.9261 178.898,84.2594 176.5,84.5C 174.151,82.659 171.485,81.3257 168.5,80.5C 167.306,79.7281 166.306,78.7281 165.5,77.5C 164.972,76.2794 164.305,75.1127 163.5,74C 160.736,73.9942 158.736,72.8275 157.5,70.5C 159.011,69.4975 160.678,68.8308 162.5,68.5C 162.5,69.5 162.5,70.5 162.5,71.5C 163.833,71.5 165.167,71.5 166.5,71.5C 166.67,72.8221 166.337,73.9887 165.5,75C 170.02,80.1485 171.854,79.3152 171,72.5C 169.129,71.0027 168.129,69.0027 168,66.5C 167.667,66.1667 167.333,65.8333 167,65.5C 165.04,67.8985 162.874,68.0652 160.5,66C 165.619,64.0874 165.619,62.2541 160.5,60.5C 160.5,59.8333 160.5,59.1667 160.5,58.5 Z"/></g>
<g><path style="opacity:0.475" fill="#fef7e0" d="M 38.5,59.5 C 38.4249,62.2062 38.0916,64.8728 37.5,67.5C 35.5671,77.1585 36.9005,86.4919 41.5,95.5C 38.6381,92.443 36.8047,88.7764 36,84.5C 34.0101,75.8029 34.8434,67.4696 38.5,59.5 Z"/></g>
<g><path style="opacity:1" fill="#2c8e3d" d="M 104.5,69.5 C 103.058,70.8195 102.392,72.4862 102.5,74.5C 104.564,74.687 106.564,75.187 108.5,76C 108.167,76.3333 107.833,76.6667 107.5,77C 109.058,77.21 110.391,77.71 111.5,78.5C 109.616,78.7118 108.283,79.7118 107.5,81.5C 106.914,81.2907 106.414,80.9574 106,80.5C 104.833,81.6667 103.667,82.8333 102.5,84C 99.1694,84.0794 96.1694,84.9127 93.5,86.5C 93.2963,82.719 94.963,80.3857 98.5,79.5C 98.5,78.5 98.5,77.5 98.5,76.5C 95.1869,77.0448 91.8536,77.5448 88.5,78C 88.0426,78.414 87.7093,78.914 87.5,79.5C 88.7472,81.323 89.4139,83.323 89.5,85.5C 86.4908,85.577 84.3241,84.2437 83,81.5C 81.523,84.5119 81.8563,87.5119 84,90.5C 87.4046,91.6498 89.5713,90.3164 90.5,86.5C 90.8333,87.1667 91.1667,87.8333 91.5,88.5C 90.3489,90.3254 89.6822,92.3254 89.5,94.5C 87.6119,93.7249 85.6119,93.7249 83.5,94.5C 82.8491,89.1764 80.5158,84.8431 76.5,81.5C 76.4701,80.5028 76.9701,79.8361 78,79.5C 83.4319,77.855 88.5985,75.855 93.5,73.5C 95.153,73.3404 96.4863,72.6737 97.5,71.5C 99.8333,70.8333 102.167,70.1667 104.5,69.5 Z"/></g>
<g><path style="opacity:0.51" fill="#fee197" d="M 42.5,68.5 C 42.8333,68.5 43.1667,68.5 43.5,68.5C 43.5,69.1667 43.8333,69.5 44.5,69.5C 43.5546,74.4053 43.2213,79.4053 43.5,84.5C 43.1667,84.5 42.8333,84.5 42.5,84.5C 42.5,79.1667 42.5,73.8333 42.5,68.5 Z"/></g>
<g><path style="opacity:0.031" fill="#ecf5ed" d="M 93.5,73.5 C 88.5985,75.855 83.4319,77.855 78,79.5C 76.9701,79.8361 76.4701,80.5028 76.5,81.5C 74.0698,80.3467 74.0698,79.3467 76.5,78.5C 82.0372,76.2733 87.7039,74.6066 93.5,73.5 Z"/></g>
<g><path style="opacity:0.392" fill="#e0eee1" d="M 163.5,77.5 C 164.167,77.5 164.833,77.5 165.5,77.5C 166.306,78.7281 167.306,79.7281 168.5,80.5C 166.067,80.7271 164.401,79.7271 163.5,77.5 Z"/></g>
<g><path style="opacity:1" fill="#288f3a" d="M 179.5,71.5 C 184.438,72.8682 189.271,74.5349 194,76.5C 194.499,80.1516 194.665,83.8183 194.5,87.5C 192.379,87.6747 190.379,87.3414 188.5,86.5C 187.122,85.7656 185.622,85.0989 184,84.5C 183.689,83.2575 184.189,82.2575 185.5,81.5C 184.332,79.7826 182.665,79.1159 180.5,79.5C 180.297,77.6096 180.963,76.1096 182.5,75C 181.271,74.2189 179.938,73.7189 178.5,73.5C 175.683,74.8546 174.85,73.8546 176,70.5C 177.011,71.3366 178.178,71.67 179.5,71.5 Z"/></g>
<g><path style="opacity:0.029" fill="#fefdf5" d="M 50.5,78.5 C 51.5,80.5 52.5,82.5 53.5,84.5C 53.5,85.5 53.5,86.5 53.5,87.5C 51.5275,84.9164 50.5275,81.9164 50.5,78.5 Z"/></g>
<g><path style="opacity:0.812" fill="#f0e198" d="M 51.5,60.5 C 51.3284,61.4916 51.6618,62.1583 52.5,62.5C 52.5,62.8333 52.5,63.1667 52.5,63.5C 50.9261,65.1016 50.2594,67.1016 50.5,69.5C 50.5,72.5 50.5,75.5 50.5,78.5C 50.5275,81.9164 51.5275,84.9164 53.5,87.5C 54.0798,89.7488 55.4131,91.4154 57.5,92.5C 57.8102,94.1436 58.8102,95.1436 60.5,95.5C 60.5,95.8333 60.5,96.1667 60.5,96.5C 59.8333,96.5 59.5,96.8333 59.5,97.5C 51.695,90.5585 47.695,81.8918 47.5,71.5C 47.4767,67.2361 48.8101,63.5695 51.5,60.5 Z"/></g>
<g><path style="opacity:0.008" fill="#fefffe" d="M 53.5,84.5 C 53.369,83.7611 53.5357,83.0944 54,82.5C 54.6917,83.4368 54.525,84.1034 53.5,84.5 Z"/></g>
<g><path style="opacity:0.067" fill="#eef6ef" d="M 168.5,80.5 C 171.485,81.3257 174.151,82.659 176.5,84.5C 173.246,84.2064 170.579,82.873 168.5,80.5 Z"/></g>
<g><path style="opacity:0.82" fill="#bfd7c3" d="M 176.5,84.5 C 178.898,84.2594 180.898,84.9261 182.5,86.5C 180.214,86.405 178.214,85.7384 176.5,84.5 Z"/></g>
<g><path style="opacity:1" fill="#279039" d="M 93.5,86.5 C 92.8554,89.5468 93.8554,91.7135 96.5,93C 95.3595,93.7412 95.3595,94.5745 96.5,95.5C 94.5405,96.5192 92.5405,96.5192 90.5,95.5C 90.5,94.8333 90.1667,94.5 89.5,94.5C 89.6822,92.3254 90.3489,90.3254 91.5,88.5C 91.1667,87.8333 90.8333,87.1667 90.5,86.5C 89.5713,90.3164 87.4046,91.6498 84,90.5C 81.8563,87.5119 81.523,84.5119 83,81.5C 84.3241,84.2437 86.4908,85.577 89.5,85.5C 89.4139,83.323 88.7472,81.323 87.5,79.5C 87.7093,78.914 88.0426,78.414 88.5,78C 91.8536,77.5448 95.1869,77.0448 98.5,76.5C 98.5,77.5 98.5,78.5 98.5,79.5C 94.963,80.3857 93.2963,82.719 93.5,86.5 Z"/></g>
<g><path style="opacity:0.008" fill="#fefffe" d="M 55.5,87.5 C 56.8333,88.1667 56.8333,88.1667 55.5,87.5 Z"/></g>
<g><path style="opacity:0.014" fill="#f7faf7" d="M 126.5,71.5 C 126.092,72.6431 125.425,73.6431 124.5,74.5C 117.248,79.0422 110.081,83.7089 103,88.5C 102.83,97.343 102.33,106.01 101.5,114.5C 101.5,106.5 101.5,98.5 101.5,90.5C 101.5,89.5 101.5,88.5 101.5,87.5C 108.108,83.5574 114.441,79.2241 120.5,74.5C 120.833,74.5 121.167,74.5 121.5,74.5C 122.922,73.075 124.589,72.075 126.5,71.5 Z"/></g>
<g><path style="opacity:1" fill="#45894f" d="M 178.5,69.5 C 184.088,71.462 189.754,73.1287 195.5,74.5C 195.613,79.518 195.947,84.518 196.5,89.5C 195.167,89.5 193.833,89.5 192.5,89.5C 192.167,89.5 191.833,89.5 191.5,89.5C 189.5,88.5 187.5,87.5 185.5,86.5C 186.5,86.5 187.5,86.5 188.5,86.5C 190.379,87.3414 192.379,87.6747 194.5,87.5C 194.665,83.8183 194.499,80.1516 194,76.5C 189.271,74.5349 184.438,72.8682 179.5,71.5C 179.167,70.8333 178.833,70.1667 178.5,69.5 Z"/></g>
<g><path style="opacity:0.038" fill="#f4faf4" d="M 182.5,86.5 C 183.5,86.5 184.5,86.5 185.5,86.5C 187.5,87.5 189.5,88.5 191.5,89.5C 188.084,89.4725 185.084,88.4725 182.5,86.5 Z"/></g>
<g><path style="opacity:0.038" fill="#fffef9" d="M 53.5,87.5 C 54.1667,87.8333 54.8333,88.1667 55.5,88.5C 56.3065,89.7281 57.3065,90.7281 58.5,91.5C 57.8333,91.5 57.5,91.8333 57.5,92.5C 55.4131,91.4154 54.0798,89.7488 53.5,87.5 Z"/></g>
<g><path style="opacity:0.004" fill="#fefffe" d="M 58.5,91.5 C 59.8333,92.1667 59.8333,92.1667 58.5,91.5 Z"/></g>
<g><path style="opacity:1" fill="#f8c12d" d="M 37.5,67.5 C 37.3345,71.5138 37.5012,75.5138 38,79.5C 38.1992,81.4025 39.0325,82.9025 40.5,84C 39.4464,85.3876 39.2797,86.8876 40,88.5C 40.6667,89.8333 41.3333,89.8333 42,88.5C 42.49,87.2068 42.6567,85.8734 42.5,84.5C 42.8333,84.5 43.1667,84.5 43.5,84.5C 43.5,85.1667 43.8333,85.5 44.5,85.5C 46.4464,95.299 51.7798,102.799 60.5,108C 63.5612,110.035 66.8945,111.201 70.5,111.5C 69.8166,113.176 68.4832,113.843 66.5,113.5C 63.6887,113.174 61.022,112.341 58.5,111C 54.6605,108.644 50.9938,106.144 47.5,103.5C 45.8777,100.545 43.8777,97.8785 41.5,95.5C 36.9005,86.4919 35.5671,77.1585 37.5,67.5 Z"/></g>
<g><path style="opacity:0.025" fill="#fefef6" d="M 57.5,92.5 C 57.8333,92.5 58.1667,92.5 58.5,92.5C 59.5511,93.2223 60.2178,94.2223 60.5,95.5C 58.8102,95.1436 57.8102,94.1436 57.5,92.5 Z"/></g>
<g><path style="opacity:0.22" fill="#faf6e8" d="M 27.5,98.5 C 27.9528,97.5416 28.6195,96.7083 29.5,96C 27.8659,95.5065 26.1992,95.3398 24.5,95.5C 27.5427,94.691 30.376,93.3577 33,91.5C 33.5,92.5 34,93.5 34.5,94.5C 32.2746,96.11 29.9413,97.4434 27.5,98.5 Z"/></g>
<g><path style="opacity:0.014" fill="#fefbf0" d="M 24.5,95.5 C 22.1098,97.0198 19.4432,98.0198 16.5,98.5C 16.2591,101.034 17.2591,102.7 19.5,103.5C 15.6579,104.486 14.1579,102.819 15,98.5C 17.8002,96.5053 20.9668,95.5053 24.5,95.5 Z"/></g>
<g><path style="opacity:0.286" fill="#fdf4d9" d="M 41.5,95.5 C 43.8777,97.8785 45.8777,100.545 47.5,103.5C 44.3528,101.687 42.3528,99.0204 41.5,95.5 Z"/></g>
<g><path style="opacity:0.037" fill="#fef8e9" d="M 47.5,71.5 C 47.695,81.8918 51.695,90.5585 59.5,97.5C 61.5217,99.4557 63.8551,100.956 66.5,102C 67.9437,102.781 69.277,102.614 70.5,101.5C 66.8662,100.35 63.5329,98.6831 60.5,96.5C 60.5,96.1667 60.5,95.8333 60.5,95.5C 63.1136,96.8068 65.7802,98.1401 68.5,99.5C 69.9056,98.3318 71.0723,98.6652 72,100.5C 72.2288,105.305 72.3955,110.305 72.5,115.5C 62.4716,115.658 54.1383,111.658 47.5,103.5C 50.9938,106.144 54.6605,108.644 58.5,111C 61.022,112.341 63.6887,113.174 66.5,113.5C 67.9187,114.451 69.5853,114.784 71.5,114.5C 71.81,111.287 71.4767,108.287 70.5,105.5C 58.6226,102.105 50.9559,94.4384 47.5,82.5C 47.5,78.8333 47.5,75.1667 47.5,71.5 Z"/></g>
<g><path style="opacity:0.004" fill="#fefffe" d="M 195.5,97.5 C 196.833,98.1667 196.833,98.1667 195.5,97.5 Z"/></g>
<g><path style="opacity:0.996" fill="#f0c644" d="M 24.5,95.5 C 26.1992,95.3398 27.8659,95.5065 29.5,96C 28.6195,96.7083 27.9528,97.5416 27.5,98.5C 24.1511,99.1695 21.4844,100.836 19.5,103.5C 17.2591,102.7 16.2591,101.034 16.5,98.5C 19.4432,98.0198 22.1098,97.0198 24.5,95.5 Z"/></g>
<g><path style="opacity:1" fill="#298e3c" d="M 120.5,74.5 C 114.441,79.2241 108.108,83.5574 101.5,87.5C 100.883,87.6107 100.383,87.944 100,88.5C 99.7435,91.557 99.2435,94.557 98.5,97.5C 99.1529,113.961 99.8196,130.294 100.5,146.5C 100.5,151.833 100.5,157.167 100.5,162.5C 100.5,166.167 100.5,169.833 100.5,173.5C 96.9581,173.813 93.6248,173.479 90.5,172.5C 93.5,172.5 96.5,172.5 99.5,172.5C 99.6602,170.801 99.4935,169.134 99,167.5C 97.5778,167.406 96.0778,167.072 94.5,166.5C 94.9312,165.707 95.2645,164.873 95.5,164C 92.9417,156.799 92.9417,149.632 95.5,142.5C 94.1358,138.611 93.3025,134.611 93,130.5C 92.0747,135.625 91.2414,140.625 90.5,145.5C 90.5,128.833 90.5,112.167 90.5,95.5C 92.5405,96.5192 94.5405,96.5192 96.5,95.5C 95.3595,94.5745 95.3595,93.7412 96.5,93C 93.8554,91.7135 92.8554,89.5468 93.5,86.5C 96.1694,84.9127 99.1694,84.0794 102.5,84C 103.667,82.8333 104.833,81.6667 106,80.5C 106.414,80.9574 106.914,81.2907 107.5,81.5C 108.283,79.7118 109.616,78.7118 111.5,78.5C 113.225,78.1575 113.725,77.1575 113,75.5C 108.537,73.3576 108.537,71.0243 113,68.5C 117.154,69.0629 117.988,70.7296 115.5,73.5C 117.045,74.4519 118.712,74.7852 120.5,74.5 Z"/></g>
<g><path style="opacity:1" fill="#428b4e" d="M 144.5,100.5 C 144.953,101.458 145.619,102.292 146.5,103C 145.748,103.671 145.414,104.504 145.5,105.5C 144.732,106.263 144.232,107.263 144,108.5C 143.502,106.456 142.335,105.122 140.5,104.5C 134.871,100.135 129.705,100.802 125,106.5C 124.333,109.5 124.333,112.5 125,115.5C 125.383,116.056 125.883,116.389 126.5,116.5C 126.5,116.833 126.5,117.167 126.5,117.5C 125.504,117.586 124.671,117.252 124,116.5C 123.667,112.833 123.333,109.167 123,105.5C 121.064,107.78 120.231,110.447 120.5,113.5C 120.374,117.228 121.374,120.561 123.5,123.5C 123.167,123.5 122.833,123.5 122.5,123.5C 121.488,122.128 120.488,120.795 119.5,119.5C 118.295,115.487 118.295,111.487 119.5,107.5C 119.5,107.167 119.5,106.833 119.5,106.5C 121.36,105.061 123.027,103.395 124.5,101.5C 131.014,99.1811 137.68,98.8478 144.5,100.5 Z"/></g>
<g><path style="opacity:0.043" fill="#e4f0e6" d="M 144.5,100.5 C 137.68,98.8478 131.014,99.1811 124.5,101.5C 124.881,100.069 125.881,99.2355 127.5,99C 131.753,98.8002 135.92,98.3002 140,97.5C 141.409,98.7811 142.909,99.7811 144.5,100.5 Z"/></g>
<g><path style="opacity:0.02" fill="#ecf4ee" d="M 174.5,99.5 C 171.872,100.814 169.205,102.147 166.5,103.5C 167.072,102.027 167.905,100.693 169,99.5C 170.626,99.8541 172.459,99.8541 174.5,99.5 Z"/></g>
<g><path style="opacity:0.022" fill="#f3f9f4" d="M 193.5,99.5 C 197.575,98.659 200.575,99.9924 202.5,103.5C 199.314,102.403 196.314,101.07 193.5,99.5 Z"/></g>
<g><path style="opacity:0.016" fill="#f2f8f3" d="M 279.5,99.5 C 283.186,98.5089 284.853,100.176 284.5,104.5C 283.442,103.4 282.608,102.066 282,100.5C 281.329,99.7476 280.496,99.4142 279.5,99.5 Z"/></g>
<g><path style="opacity:1" fill="#f29722" d="M 47.5,82.5 C 50.9559,94.4384 58.6226,102.105 70.5,105.5C 70.5,107.5 70.5,109.5 70.5,111.5C 66.8945,111.201 63.5612,110.035 60.5,108C 51.7798,102.799 46.4464,95.299 44.5,85.5C 44.0585,80.3088 44.5585,75.3088 46,70.5C 46.1762,74.6877 46.6762,78.6877 47.5,82.5 Z"/></g>
<g><path style="opacity:1" fill="#ecda63" d="M 59.5,97.5 C 59.5,96.8333 59.8333,96.5 60.5,96.5C 63.5329,98.6831 66.8662,100.35 70.5,101.5C 69.277,102.614 67.9437,102.781 66.5,102C 63.8551,100.956 61.5217,99.4557 59.5,97.5 Z"/></g>
<g><path style="opacity:0.008" fill="#fefffe" d="M 221.5,100.5 C 220.833,101.167 220.833,101.167 221.5,100.5 Z"/></g>
<g><path style="opacity:0.991" fill="#428c50" d="M 338.5,100.5 C 339.899,101.89 341.566,102.89 343.5,103.5C 343.833,104.167 344.167,104.833 344.5,105.5C 342.883,104.962 341.216,104.629 339.5,104.5C 340.306,107.285 340.972,110.119 341.5,113C 341.392,114.681 340.725,115.848 339.5,116.5C 339.664,113.813 339.497,111.146 339,108.5C 338.623,107.058 337.79,106.058 336.5,105.5C 335.508,105.672 334.842,105.338 334.5,104.5C 334.082,103.778 333.416,103.278 332.5,103C 328.179,102.501 323.846,102.334 319.5,102.5C 319.5,109.833 319.5,117.167 319.5,124.5C 318.671,117.345 318.171,110.011 318,102.5C 316.989,101.663 315.822,101.33 314.5,101.5C 314.5,118.167 314.5,134.833 314.5,151.5C 316.167,151.5 317.833,151.5 319.5,151.5C 317.735,152.461 315.735,152.795 313.5,152.5C 313.5,135.167 313.5,117.833 313.5,100.5C 321.833,100.5 330.167,100.5 338.5,100.5 Z"/></g>
<g><path style="opacity:0.032" fill="#ecf4ee" d="M 338.5,100.5 C 340.989,100.241 342.656,101.241 343.5,103.5C 341.566,102.89 339.899,101.89 338.5,100.5 Z"/></g>
<g><path style="opacity:0.094" fill="#fff9ea" d="M 27.5,98.5 C 26.9423,99.7899 25.9423,100.623 24.5,101C 25.3402,102.666 24.8402,102.833 23,101.5C 22.1841,102.823 21.0174,103.489 19.5,103.5C 21.4844,100.836 24.1511,99.1695 27.5,98.5 Z"/></g>
<g><path style="opacity:0.014" fill="#fafdfb" d="M 144.5,100.5 C 146.384,100.712 147.717,101.712 148.5,103.5C 147.995,104.919 146.995,105.585 145.5,105.5C 145.414,104.504 145.748,103.671 146.5,103C 145.619,102.292 144.953,101.458 144.5,100.5 Z"/></g>
<g><path style="opacity:0.541" fill="#e1efe2" d="M 124.5,101.5 C 123.027,103.395 121.36,105.061 119.5,106.5C 119.343,105.127 119.51,103.793 120,102.5C 120.333,102.833 120.667,103.167 121,103.5C 121.816,102.177 122.983,101.511 124.5,101.5 Z"/></g>
<g><path style="opacity:0.011" fill="#eff7f0" d="M 140.5,104.5 C 134.962,101.388 130.129,102.388 126,107.5C 125.505,110.531 125.671,113.531 126.5,116.5C 125.883,116.389 125.383,116.056 125,115.5C 124.333,112.5 124.333,109.5 125,106.5C 129.705,100.802 134.871,100.135 140.5,104.5 Z"/></g>
<g><path style="opacity:1" fill="#54965f" d="M 193.5,99.5 C 196.314,101.07 199.314,102.403 202.5,103.5C 203.5,104.833 204.5,106.167 205.5,107.5C 203.956,107.297 202.622,106.63 201.5,105.5C 201.167,105.833 200.833,106.167 200.5,106.5C 203.094,108.725 204.76,111.391 205.5,114.5C 205.5,115.5 205.5,116.5 205.5,117.5C 205.5,117.833 205.5,118.167 205.5,118.5C 204.687,116.739 203.687,115.072 202.5,113.5C 202.771,111.62 202.104,110.287 200.5,109.5C 199.5,107.833 198.167,106.5 196.5,105.5C 195.508,105.672 194.842,105.338 194.5,104.5C 184.049,99.3656 174.716,101.032 166.5,109.5C 166.728,107.645 166.061,106.812 164.5,107C 162.574,109.738 160.574,112.238 158.5,114.5C 158.709,113.078 159.209,111.745 160,110.5C 161.728,107.67 163.895,105.337 166.5,103.5C 169.205,102.147 171.872,100.814 174.5,99.5C 180.833,98.1667 187.167,98.1667 193.5,99.5 Z"/></g>
<g><path style="opacity:0.03" fill="#eaf5ec" d="M 194.5,104.5 C 174.494,99.7613 164.161,107.761 163.5,128.5C 163.5,129.167 163.5,129.833 163.5,130.5C 162.333,123.334 163.333,116.334 166.5,109.5C 174.716,101.032 184.049,99.3656 194.5,104.5 Z"/></g>
<g><path style="opacity:0.01" fill="#f1f8f2" d="M 208.5,109.5 C 207.5,108.833 206.5,108.167 205.5,107.5C 204.5,106.167 203.5,104.833 202.5,103.5C 203.117,103.389 203.617,103.056 204,102.5C 205.75,104.734 207.25,107.068 208.5,109.5 Z"/></g>
<g><path style="opacity:0.008" fill="#fafefb" d="M 196.5,105.5 C 198.167,106.5 199.5,107.833 200.5,109.5C 198.167,109.167 196.833,107.833 196.5,105.5 Z"/></g>
<g><path style="opacity:0.053" fill="#edf5ee" d="M 221.5,100.5 C 221.811,99.5222 222.478,98.8555 223.5,98.5C 226.131,99.344 228.631,99.6773 231,99.5C 231.167,115.51 231.667,131.51 232.5,147.5C 235.468,148.368 238.301,148.701 241,148.5C 244.284,146.815 247.618,146.148 251,146.5C 251.497,148.81 251.663,151.143 251.5,153.5C 241.833,153.5 232.167,153.5 222.5,153.5C 222.83,135.659 222.497,117.992 221.5,100.5 Z"/></g>
<g><path style="opacity:0.937" fill="#b4cfb4" d="M 278.5,101.5 C 278.241,104.272 277.241,106.605 275.5,108.5C 275.552,105.654 276.552,103.32 278.5,101.5 Z"/></g>
<g><path style="opacity:0.033" fill="#ebf4ee" d="M 140.5,104.5 C 142.335,105.122 143.502,106.456 144,108.5C 144.232,107.263 144.732,106.263 145.5,105.5C 145.5,106.833 145.5,108.167 145.5,109.5C 142.745,109.037 141.078,107.37 140.5,104.5 Z"/></g>
<g><path style="opacity:0.01" fill="#f4f9f4" d="M 343.5,103.5 C 345.776,103.756 346.943,105.09 347,107.5C 348.439,118.067 343.939,124.567 333.5,127C 335.451,128.734 336.451,130.901 336.5,133.5C 334.4,131.502 332.4,129.335 330.5,127C 333.089,125.803 335.756,124.803 338.5,124C 341.056,122.945 342.723,121.112 343.5,118.5C 344.167,118.5 344.5,118.167 344.5,117.5C 347.167,113.833 347.167,110.167 344.5,106.5C 344.5,106.167 344.5,105.833 344.5,105.5C 344.167,104.833 343.833,104.167 343.5,103.5 Z"/></g>
<g><path style="opacity:0.808" fill="#e8bf77" d="M 70.5,105.5 C 71.4767,108.287 71.81,111.287 71.5,114.5C 69.5853,114.784 67.9187,114.451 66.5,113.5C 68.4832,113.843 69.8166,113.176 70.5,111.5C 70.5,109.5 70.5,107.5 70.5,105.5 Z"/></g>
<g><path style="opacity:0.034" fill="#f2f8f3" d="M 119.5,107.5 C 118.295,111.487 118.295,115.487 119.5,119.5C 116.921,115.47 116.921,111.47 119.5,107.5 Z"/></g>
<g><path style="opacity:0.033" fill="#eef6ef" d="M 208.5,109.5 C 210.85,110.195 211.517,111.528 210.5,113.5C 209.326,112.486 208.66,111.153 208.5,109.5 Z"/></g>
<g><path style="opacity:0.025" fill="#ebf4ec" d="M 336.5,105.5 C 337.79,106.058 338.623,107.058 339,108.5C 339.497,111.146 339.664,113.813 339.5,116.5C 338.533,119.468 336.533,121.468 333.5,122.5C 337.939,117.426 338.939,111.759 336.5,105.5 Z"/></g>
<g><path style="opacity:0.04" fill="#e5f0e6" d="M 166.5,103.5 C 163.895,105.337 161.728,107.67 160,110.5C 159.209,111.745 158.709,113.078 158.5,114.5C 157.833,115.167 157.167,115.833 156.5,116.5C 156.389,115.883 156.056,115.383 155.5,115C 157.543,111.747 159.71,108.58 162,105.5C 163.11,103.963 164.61,103.297 166.5,103.5 Z"/></g>
<g><path style="opacity:0.267" fill="#e8f3ec" d="M 200.5,109.5 C 202.104,110.287 202.771,111.62 202.5,113.5C 201.326,112.486 200.66,111.153 200.5,109.5 Z"/></g>
<g><path style="opacity:1" fill="#2b8e3d" d="M 319.5,124.5 C 319.5,125.5 319.5,126.5 319.5,127.5C 319.5,135.5 319.5,143.5 319.5,151.5C 317.833,151.5 316.167,151.5 314.5,151.5C 314.5,134.833 314.5,118.167 314.5,101.5C 315.822,101.33 316.989,101.663 318,102.5C 318.171,110.011 318.671,117.345 319.5,124.5 Z"/></g>
<g><path style="opacity:1" fill="#478a54" d="M 344.5,106.5 C 347.167,110.167 347.167,113.833 344.5,117.5C 344.5,113.833 344.5,110.167 344.5,106.5 Z"/></g>
<g><path style="opacity:1" fill="#298f3c" d="M 344.5,105.5 C 344.5,105.833 344.5,106.167 344.5,106.5C 344.5,110.167 344.5,113.833 344.5,117.5C 344.5,118.167 344.167,118.5 343.5,118.5C 342.265,118.721 341.265,119.388 340.5,120.5C 339.571,119.311 339.238,117.978 339.5,116.5C 340.725,115.848 341.392,114.681 341.5,113C 340.972,110.119 340.306,107.285 339.5,104.5C 341.216,104.629 342.883,104.962 344.5,105.5 Z"/></g>
<g><path style="opacity:0.026" fill="#f3faf4" d="M 210.5,113.5 C 212.256,114.552 212.923,116.219 212.5,118.5C 211.691,116.972 211.024,115.306 210.5,113.5 Z"/></g>
<g><path style="opacity:0.028" fill="#e9f4eb" d="M 279.5,109.5 C 281.856,114.874 284.19,120.207 286.5,125.5C 286.557,126.609 286.89,127.609 287.5,128.5C 286.167,128.5 284.833,128.5 283.5,128.5C 283.923,127.735 284.257,126.902 284.5,126C 282.673,121.19 280.84,116.357 279,111.5C 278.978,115.325 277.478,118.325 274.5,120.5C 275.393,116.387 277.06,112.72 279.5,109.5 Z"/></g>
<g><path style="opacity:0.052" fill="#eff7f0" d="M 76.5,81.5 C 80.5158,84.8431 82.8491,89.1764 83.5,94.5C 85.6119,93.7249 87.6119,93.7249 89.5,94.5C 89.5,109.167 89.5,123.833 89.5,138.5C 89.1667,138.5 88.8333,138.5 88.5,138.5C 88.7824,124.131 88.4491,109.797 87.5,95.5C 85.8333,95.5 84.1667,95.5 82.5,95.5C 81.0396,90.5816 79.0396,85.9149 76.5,81.5 Z"/></g>
<g><path style="opacity:1" fill="#358746" d="M 101.5,87.5 C 101.5,88.5 101.5,89.5 101.5,90.5C 100.503,108.993 100.17,127.659 100.5,146.5C 99.8196,130.294 99.1529,113.961 98.5,97.5C 99.2435,94.557 99.7435,91.557 100,88.5C 100.383,87.944 100.883,87.6107 101.5,87.5 Z"/></g>
<g><path style="opacity:0.341" fill="#cbe5d0" d="M 101.5,90.5 C 101.5,98.5 101.5,106.5 101.5,114.5C 101.557,125.511 101.557,136.511 101.5,147.5C 101.5,152.5 101.5,157.5 101.5,162.5C 101.167,162.5 100.833,162.5 100.5,162.5C 100.5,157.167 100.5,151.833 100.5,146.5C 100.17,127.659 100.503,108.993 101.5,90.5 Z"/></g>
<g><path style="opacity:0.059" fill="#eef7f0" d="M 119.5,119.5 C 120.488,120.795 121.488,122.128 122.5,123.5C 120.088,123.306 119.088,121.973 119.5,119.5 Z"/></g>
<g><path style="opacity:1" fill="#338c43" d="M 166.5,109.5 C 163.333,116.334 162.333,123.334 163.5,130.5C 163.704,133.518 164.037,136.518 164.5,139.5C 163.542,139.047 162.708,138.381 162,137.5C 161.501,132.511 161.334,127.511 161.5,122.5C 160.5,122.5 159.5,122.5 158.5,122.5C 157.329,127.818 157.329,133.151 158.5,138.5C 155.38,131.518 154.714,124.185 156.5,116.5C 157.167,115.833 157.833,115.167 158.5,114.5C 160.574,112.238 162.574,109.738 164.5,107C 166.061,106.812 166.728,107.645 166.5,109.5 Z"/></g>
<g><path style="opacity:1" fill="#2d8d3f" d="M 284.5,108.5 C 286.008,110.181 287.008,112.181 287.5,114.5C 288.403,120.456 290.07,126.123 292.5,131.5C 291.448,131.649 290.448,131.483 289.5,131C 289.011,128.791 288.011,126.958 286.5,125.5C 284.19,120.207 281.856,114.874 279.5,109.5C 278.699,107.958 278.366,106.292 278.5,104.5C 281.318,104.657 283.318,105.991 284.5,108.5 Z"/></g>
<g><path style="opacity:0.153" fill="#faf6e4" d="M 58.5,125.5 C 58.6567,124.127 58.49,122.793 58,121.5C 57.6232,122.942 56.7899,123.942 55.5,124.5C 56.158,121.18 57.8247,118.513 60.5,116.5C 60.8333,116.667 61.1667,116.833 61.5,117C 60.972,120.089 59.972,122.923 58.5,125.5 Z"/></g>
<g><path style="opacity:0.039" fill="#ecf5ed" d="M 275.5,108.5 C 272.401,117.147 268.734,125.481 264.5,133.5C 266.474,124.721 270.141,116.388 275.5,108.5 Z"/></g>
<g><path style="opacity:0.018" fill="#f1f7f2" d="M 284.5,104.5 C 291.791,119.023 298.124,134.023 303.5,149.5C 300.976,145.257 298.643,140.924 296.5,136.5C 294.012,128.871 291.012,121.538 287.5,114.5C 287.008,112.181 286.008,110.181 284.5,108.5C 284.5,107.167 284.5,105.833 284.5,104.5 Z"/></g>
<g><path style="opacity:0.204" fill="#e5f1e7" d="M 334.5,104.5 C 330.553,103.574 327.053,103.241 324,103.5C 323.311,104.357 322.478,105.023 321.5,105.5C 320.504,111.463 320.171,117.463 320.5,123.5C 324.869,123.533 329.202,123.2 333.5,122.5C 333.082,123.222 332.416,123.722 331.5,124C 327.514,124.499 323.514,124.666 319.5,124.5C 319.5,117.167 319.5,109.833 319.5,102.5C 323.846,102.334 328.179,102.501 332.5,103C 333.416,103.278 334.082,103.778 334.5,104.5 Z"/></g>
<g><path style="opacity:0.018" fill="#f1f8f3" d="M 122.5,123.5 C 122.833,123.5 123.167,123.5 123.5,123.5C 124.694,124.272 125.694,125.272 126.5,126.5C 124.368,126.446 123.035,125.446 122.5,123.5 Z"/></g>
<g><path style="opacity:0.021" fill="#eaf3ec" d="M 126.5,116.5 C 132.548,119.238 138.548,122.071 144.5,125C 152.008,133.818 151.674,142.485 143.5,151C 137.345,154.327 131.012,155.16 124.5,153.5C 135.554,155.391 143.388,151.391 148,141.5C 149.689,135.655 148.189,130.988 143.5,127.5C 137.701,124.432 132.034,121.099 126.5,117.5C 126.5,117.167 126.5,116.833 126.5,116.5 Z"/></g>
<g><path style="opacity:1" fill="#3e8d4c" d="M 205.5,107.5 C 206.5,108.167 207.5,108.833 208.5,109.5C 208.66,111.153 209.326,112.486 210.5,113.5C 211.024,115.306 211.691,116.972 212.5,118.5C 215.058,132.259 210.725,142.926 199.5,150.5C 190.708,153.513 181.708,154.179 172.5,152.5C 170.819,150.992 168.819,149.992 166.5,149.5C 166.5,149.167 166.5,148.833 166.5,148.5C 168.179,148.715 169.179,148.048 169.5,146.5C 171.713,147.773 174.046,148.773 176.5,149.5C 178.099,149.232 179.432,149.566 180.5,150.5C 184.29,151.902 187.956,151.569 191.5,149.5C 194.546,149.275 196.879,147.942 198.5,145.5C 201.051,143.422 202.884,140.756 204,137.5C 205.317,131.243 205.817,124.909 205.5,118.5C 205.5,118.167 205.5,117.833 205.5,117.5C 206.117,117.611 206.617,117.944 207,118.5C 207.927,126.043 207.094,133.376 204.5,140.5C 205.365,141.583 206.365,141.749 207.5,141C 210.02,136.416 211.02,131.416 210.5,126C 210.167,122.5 209.833,119 209.5,115.5C 208.065,114.176 207.065,112.51 206.5,110.5C 205.571,111.689 205.238,113.022 205.5,114.5C 204.76,111.391 203.094,108.725 200.5,106.5C 200.833,106.167 201.167,105.833 201.5,105.5C 202.622,106.63 203.956,107.297 205.5,107.5 Z"/></g>
<g><path style="opacity:1" fill="#288f3a" d="M 205.5,117.5 C 205.5,116.5 205.5,115.5 205.5,114.5C 205.238,113.022 205.571,111.689 206.5,110.5C 207.065,112.51 208.065,114.176 209.5,115.5C 209.833,119 210.167,122.5 210.5,126C 211.02,131.416 210.02,136.416 207.5,141C 206.365,141.749 205.365,141.583 204.5,140.5C 207.094,133.376 207.927,126.043 207,118.5C 206.617,117.944 206.117,117.611 205.5,117.5 Z"/></g>
<g><path style="opacity:1" fill="#328f40" d="M 126.5,117.5 C 132.034,121.099 137.701,124.432 143.5,127.5C 146.419,131.263 147.753,135.596 147.5,140.5C 146.5,140.5 145.5,140.5 144.5,140.5C 144.88,138.302 144.213,136.635 142.5,135.5C 141.415,133.413 139.749,132.08 137.5,131.5C 136.508,131.672 135.842,131.338 135.5,130.5C 135.586,129.504 135.252,128.671 134.5,128C 131.883,127.178 129.216,126.678 126.5,126.5C 125.694,125.272 124.694,124.272 123.5,123.5C 121.374,120.561 120.374,117.228 120.5,113.5C 120.231,110.447 121.064,107.78 123,105.5C 123.333,109.167 123.667,112.833 124,116.5C 124.671,117.252 125.504,117.586 126.5,117.5 Z"/></g>
<g><path style="opacity:1" fill="#81b289" d="M 126.5,126.5 C 129.216,126.678 131.883,127.178 134.5,128C 135.252,128.671 135.586,129.504 135.5,130.5C 132.088,129.925 129.088,128.592 126.5,126.5 Z"/></g>
<g><path style="opacity:0.041" fill="#e7f1e8" d="M 338.5,100.5 C 330.167,100.5 321.833,100.5 313.5,100.5C 313.5,117.833 313.5,135.167 313.5,152.5C 315.735,152.795 317.735,152.461 319.5,151.5C 319.5,143.5 319.5,135.5 319.5,127.5C 323.589,127.588 326.256,129.588 327.5,133.5C 325.871,132.375 324.371,131.041 323,129.5C 321.956,130.623 321.29,131.956 321,133.5C 320.09,140.328 320.59,146.995 322.5,153.5C 319.167,153.5 315.833,153.5 312.5,153.5C 312.82,135.786 312.486,118.12 311.5,100.5C 311.808,99.6919 312.308,99.0253 313,98.5C 321.191,99.6731 329.191,99.6731 337,98.5C 337.717,99.0442 338.217,99.7109 338.5,100.5 Z"/></g>
<g><path style="opacity:1" fill="#f3ca56" d="M 58.5,125.5 C 58.7845,127.415 58.4511,129.081 57.5,130.5C 57.3843,134.275 55.3843,135.942 51.5,135.5C 52.5743,131.695 53.9076,128.029 55.5,124.5C 56.7899,123.942 57.6232,122.942 58,121.5C 58.49,122.793 58.6567,124.127 58.5,125.5 Z"/></g>
<g><path style="opacity:1" fill="#438f4f" d="M 279.5,99.5 C 280.496,99.4142 281.329,99.7476 282,100.5C 282.608,102.066 283.442,103.4 284.5,104.5C 284.5,105.833 284.5,107.167 284.5,108.5C 283.318,105.991 281.318,104.657 278.5,104.5C 278.366,106.292 278.699,107.958 279.5,109.5C 277.06,112.72 275.393,116.387 274.5,120.5C 274.672,121.492 274.338,122.158 273.5,122.5C 272.326,123.514 271.66,124.847 271.5,126.5C 270.596,127.209 270.263,128.209 270.5,129.5C 276.358,129.822 282.025,129.489 287.5,128.5C 286.89,127.609 286.557,126.609 286.5,125.5C 288.011,126.958 289.011,128.791 289.5,131C 290.448,131.483 291.448,131.649 292.5,131.5C 290.07,126.123 288.403,120.456 287.5,114.5C 291.012,121.538 294.012,128.871 296.5,136.5C 293,130.951 291.334,131.617 291.5,138.5C 291.167,138.5 290.833,138.5 290.5,138.5C 290.167,136.5 289.833,134.5 289.5,132.5C 282.468,132.17 275.468,132.503 268.5,133.5C 266.924,135.979 265.924,138.646 265.5,141.5C 263.998,144.654 262.664,147.987 261.5,151.5C 260.667,151.833 259.833,152.167 259,152.5C 257.624,152.316 256.791,151.649 256.5,150.5C 258.293,148.574 259.293,146.241 259.5,143.5C 261.341,141.151 262.674,138.485 263.5,135.5C 263.328,134.508 263.662,133.842 264.5,133.5C 268.734,125.481 272.401,117.147 275.5,108.5C 277.241,106.605 278.241,104.272 278.5,101.5C 278.328,100.508 278.662,99.8417 279.5,99.5 Z"/></g>
<g><path style="opacity:0.667" fill="#a0caa6" d="M 271.5,126.5 C 271.5,126.833 271.5,127.167 271.5,127.5C 271.842,128.338 272.508,128.672 273.5,128.5C 273.833,128.5 274.167,128.5 274.5,128.5C 277.5,128.5 280.5,128.5 283.5,128.5C 284.833,128.5 286.167,128.5 287.5,128.5C 282.025,129.489 276.358,129.822 270.5,129.5C 270.263,128.209 270.596,127.209 271.5,126.5 Z"/></g>
<g><path style="opacity:0.009" fill="#f6faf6" d="M 273.5,122.5 C 273.424,124.304 273.757,126.304 274.5,128.5C 274.167,128.5 273.833,128.5 273.5,128.5C 273.158,127.662 272.492,127.328 271.5,127.5C 271.5,127.167 271.5,126.833 271.5,126.5C 271.66,124.847 272.326,123.514 273.5,122.5 Z"/></g>
<g><path style="opacity:0.694" fill="#d7e8da" d="M 137.5,131.5 C 139.749,132.08 141.415,133.413 142.5,135.5C 142.806,138.385 142.473,141.052 141.5,143.5C 142.411,138.633 141.078,134.633 137.5,131.5 Z"/></g>
<g><path style="opacity:0.022" fill="#f5faf5" d="M 290.5,138.5 C 289.399,137.152 288.399,135.652 287.5,134C 282.014,133.683 276.68,133.516 271.5,133.5C 269.323,136.015 267.323,138.682 265.5,141.5C 265.924,138.646 266.924,135.979 268.5,133.5C 275.468,132.503 282.468,132.17 289.5,132.5C 289.833,134.5 290.167,136.5 290.5,138.5 Z"/></g>
<g><path style="opacity:0.017" fill="#f4f9f4" d="M 338.5,136.5 C 337.599,135.71 336.932,134.71 336.5,133.5C 337.117,133.389 337.617,133.056 338,132.5C 338.49,133.793 338.657,135.127 338.5,136.5 Z"/></g>
<g><path style="opacity:1" fill="#2e8e3d" d="M 164.5,139.5 C 166.4,141.619 168.066,143.953 169.5,146.5C 169.179,148.048 168.179,148.715 166.5,148.5C 162.7,146.037 160.033,142.704 158.5,138.5C 157.329,133.151 157.329,127.818 158.5,122.5C 159.5,122.5 160.5,122.5 161.5,122.5C 161.334,127.511 161.501,132.511 162,137.5C 162.708,138.381 163.542,139.047 164.5,139.5 Z"/></g>
<g><path style="opacity:0.38" fill="#fbf5df" d="M 55.5,124.5 C 53.9076,128.029 52.5743,131.695 51.5,135.5C 55.3843,135.942 57.3843,134.275 57.5,130.5C 57.9528,138.126 55.2861,139.459 49.5,134.5C 51.023,130.771 53.023,127.438 55.5,124.5 Z"/></g>
<g><path style="opacity:1" fill="#398e48" d="M 339.5,116.5 C 339.238,117.978 339.571,119.311 340.5,120.5C 341.265,119.388 342.265,118.721 343.5,118.5C 342.723,121.112 341.056,122.945 338.5,124C 335.756,124.803 333.089,125.803 330.5,127C 332.4,129.335 334.4,131.502 336.5,133.5C 336.932,134.71 337.599,135.71 338.5,136.5C 338.833,137.5 339.5,138.167 340.5,138.5C 342.147,141.473 344.147,144.14 346.5,146.5C 347.167,147.833 348.167,148.833 349.5,149.5C 349.414,150.496 349.748,151.329 350.5,152C 347.833,152.667 345.167,152.667 342.5,152C 341.336,149.672 339.67,147.838 337.5,146.5C 337.446,144.368 336.446,143.035 334.5,142.5C 334.446,140.368 333.446,139.035 331.5,138.5C 331.262,136.596 330.262,135.262 328.5,134.5C 327.833,134.5 327.5,134.167 327.5,133.5C 326.256,129.588 323.589,127.588 319.5,127.5C 319.5,126.5 319.5,125.5 319.5,124.5C 323.514,124.666 327.514,124.499 331.5,124C 332.416,123.722 333.082,123.222 333.5,122.5C 336.533,121.468 338.533,119.468 339.5,116.5 Z"/></g>
<g><path style="opacity:0.008" fill="#e2f0e5" d="M 328.5,134.5 C 330.262,135.262 331.262,136.596 331.5,138.5C 329.738,137.738 328.738,136.404 328.5,134.5 Z"/></g>
<g><path style="opacity:0.025" fill="#fcfffd" d="M 338.5,136.5 C 339.833,136.5 340.5,137.167 340.5,138.5C 339.5,138.167 338.833,137.5 338.5,136.5 Z"/></g>
<g><path style="opacity:0.035" fill="#f0f8f2" d="M 202.5,113.5 C 203.687,115.072 204.687,116.739 205.5,118.5C 205.817,124.909 205.317,131.243 204,137.5C 202.884,140.756 201.051,143.422 198.5,145.5C 204.779,135.513 206.112,124.846 202.5,113.5 Z"/></g>
<g><path style="opacity:0.02" fill="#f2f9f4" d="M 263.5,135.5 C 262.674,138.485 261.341,141.151 259.5,143.5C 259.794,140.246 261.127,137.579 263.5,135.5 Z"/></g>
<g><path style="opacity:0.039" fill="#e8f3ea" d="M 156.5,116.5 C 154.714,124.185 155.38,131.518 158.5,138.5C 160.033,142.704 162.7,146.037 166.5,148.5C 166.5,148.833 166.5,149.167 166.5,149.5C 157.924,144.185 153.924,136.351 154.5,126C 154.328,122.523 154.994,119.356 156.5,116.5 Z"/></g>
<g><path style="opacity:1" fill="#2b8f3c" d="M 296.5,136.5 C 297.523,140.893 298.857,145.226 300.5,149.5C 299.637,151.872 298.471,151.872 297,149.5C 296.265,147.129 295.432,144.795 294.5,142.5C 294.043,141.702 293.376,141.369 292.5,141.5C 291.89,140.609 291.557,139.609 291.5,138.5C 291.334,131.617 293,130.951 296.5,136.5 Z"/></g>
<g><path style="opacity:0.027" fill="#d1e3d3" d="M 331.5,138.5 C 333.446,139.035 334.446,140.368 334.5,142.5C 333.026,141.564 332.026,140.23 331.5,138.5 Z"/></g>
<g><path style="opacity:0.032" fill="#f8fcf9" d="M 340.5,138.5 C 343.672,140.332 345.672,142.999 346.5,146.5C 344.147,144.14 342.147,141.473 340.5,138.5 Z"/></g>
<g><path style="opacity:0.038" fill="#f2f8f4" d="M 122.5,146.5 C 121.288,145.77 120.288,144.77 119.5,143.5C 118.828,144.949 118.161,146.282 117.5,147.5C 117.201,145.396 117.534,143.396 118.5,141.5C 119.736,142.246 121.07,142.579 122.5,142.5C 122.5,143.833 122.5,145.167 122.5,146.5 Z"/></g>
<g><path style="opacity:0.016" fill="#edf6ef" d="M 212.5,118.5 C 213.339,119.641 214.006,120.974 214.5,122.5C 214.794,132.249 211.794,140.749 205.5,148C 203.783,149.559 201.783,150.392 199.5,150.5C 210.725,142.926 215.058,132.259 212.5,118.5 Z"/></g>
<g><path style="opacity:0.037" fill="#ebf5ed" d="M 265.5,141.5 C 264.983,145.222 264.15,148.888 263,152.5C 260.051,153.934 257.218,153.768 254.5,152C 255.044,151.283 255.711,150.783 256.5,150.5C 256.791,151.649 257.624,152.316 259,152.5C 259.833,152.167 260.667,151.833 261.5,151.5C 262.664,147.987 263.998,144.654 265.5,141.5 Z"/></g>
<g><path style="opacity:1" fill="#3f8b4e" d="M 296.5,136.5 C 298.643,140.924 300.976,145.257 303.5,149.5C 303.5,150.5 303.5,151.5 303.5,152.5C 301.076,152.808 298.743,152.474 296.5,151.5C 295.163,148.136 293.83,144.803 292.5,141.5C 293.376,141.369 294.043,141.702 294.5,142.5C 295.432,144.795 296.265,147.129 297,149.5C 298.471,151.872 299.637,151.872 300.5,149.5C 298.857,145.226 297.523,140.893 296.5,136.5 Z"/></g>
<g><path style="opacity:0.016" fill="#f3f9f4" d="M 163.5,128.5 C 164.429,131.675 165.262,135.009 166,138.5C 167.665,140.806 169.331,143.139 171,145.5C 171.333,145.167 171.667,144.833 172,144.5C 172.903,145.701 174.069,146.535 175.5,147C 176.252,147.671 176.586,148.504 176.5,149.5C 174.046,148.773 171.713,147.773 169.5,146.5C 168.066,143.953 166.4,141.619 164.5,139.5C 164.037,136.518 163.704,133.518 163.5,130.5C 163.5,129.833 163.5,129.167 163.5,128.5 Z"/></g>
<g><path style="opacity:0.004" fill="#e2eee3" d="M 334.5,142.5 C 336.446,143.035 337.446,144.368 337.5,146.5C 336.026,145.564 335.026,144.23 334.5,142.5 Z"/></g>
<g><path style="opacity:0.021" fill="#f4faf5" d="M 122.5,147.5 C 122.5,147.167 122.5,146.833 122.5,146.5C 124.179,146.285 125.179,146.952 125.5,148.5C 124.391,148.443 123.391,148.11 122.5,147.5 Z"/></g>
<g><path style="opacity:0.561" fill="#d8e8d9" d="M 141.5,143.5 C 141.167,147.167 139.167,149.167 135.5,149.5C 137.833,147.833 139.833,145.833 141.5,143.5 Z"/></g>
<g><path style="opacity:0.01" fill="#f4faf5" d="M 198.5,145.5 C 196.879,147.942 194.546,149.275 191.5,149.5C 191.351,148.448 191.517,147.448 192,146.5C 193,146.833 194,147.167 195,147.5C 195.816,146.177 196.983,145.511 198.5,145.5 Z"/></g>
<g><path style="opacity:0.017" fill="#fcfefc" d="M 346.5,146.5 C 347.5,146.5 348.5,146.5 349.5,146.5C 349.5,147.5 349.5,148.5 349.5,149.5C 348.167,148.833 347.167,147.833 346.5,146.5 Z"/></g>
<g><path style="opacity:0.017" fill="#fefefe" d="M 101.5,147.5 C 102.932,155.687 103.265,164.02 102.5,172.5C 102.167,172.5 101.833,172.5 101.5,172.5C 101.5,169.167 101.5,165.833 101.5,162.5C 101.5,157.5 101.5,152.5 101.5,147.5 Z"/></g>
<g><path style="opacity:1" fill="#4b8a5b" d="M 122.5,146.5 C 122.5,146.833 122.5,147.167 122.5,147.5C 121.5,147.5 120.5,147.5 119.5,147.5C 119.5,148.5 119.5,149.5 119.5,150.5C 118.094,150.027 117.427,149.027 117.5,147.5C 118.161,146.282 118.828,144.949 119.5,143.5C 120.288,144.77 121.288,145.77 122.5,146.5 Z"/></g>
<g><path style="opacity:0.035" fill="#eff7f0" d="M 259.5,143.5 C 259.293,146.241 258.293,148.574 256.5,150.5C 256.707,147.759 257.707,145.426 259.5,143.5 Z"/></g>
<g><path style="opacity:0.282" fill="#eff7f1" d="M 117.5,147.5 C 117.427,149.027 118.094,150.027 119.5,150.5C 119.5,150.833 119.5,151.167 119.5,151.5C 117.804,151.315 116.471,150.481 115.5,149C 116.044,148.283 116.711,147.783 117.5,147.5 Z"/></g>
<g><path style="opacity:0.008" fill="#fefffe" d="M 252.5,149.5 C 253.833,150.167 253.833,150.167 252.5,149.5 Z"/></g>
<g><path style="opacity:0.053" fill="#eef7f0" d="M 166.5,149.5 C 168.819,149.992 170.819,150.992 172.5,152.5C 169.911,152.539 167.911,151.539 166.5,149.5 Z"/></g>
<g><path style="opacity:0.501" fill="#c9e5cf" d="M 191.5,149.5 C 187.956,151.569 184.29,151.902 180.5,150.5C 184.198,150.448 187.865,150.114 191.5,149.5 Z"/></g>
<g><path style="opacity:1" fill="#418b4d" d="M 143.5,127.5 C 148.189,130.988 149.689,135.655 148,141.5C 143.388,151.391 135.554,155.391 124.5,153.5C 123.07,152.463 121.403,151.796 119.5,151.5C 119.5,151.167 119.5,150.833 119.5,150.5C 119.5,149.5 119.5,148.5 119.5,147.5C 120.5,147.5 121.5,147.5 122.5,147.5C 123.391,148.11 124.391,148.443 125.5,148.5C 125.611,149.117 125.944,149.617 126.5,150C 129.696,150.805 132.696,150.638 135.5,149.5C 139.167,149.167 141.167,147.167 141.5,143.5C 142.473,141.052 142.806,138.385 142.5,135.5C 144.213,136.635 144.88,138.302 144.5,140.5C 145.5,140.5 146.5,140.5 147.5,140.5C 147.753,135.596 146.419,131.263 143.5,127.5 Z"/></g>
<g><path style="opacity:0.037" fill="#ecf5ee" d="M 125.5,148.5 C 128.764,149.324 132.098,149.658 135.5,149.5C 132.696,150.638 129.696,150.805 126.5,150C 125.944,149.617 125.611,149.117 125.5,148.5 Z"/></g>
<g><path style="opacity:0.943" fill="#468c53" d="M 230.5,149.5 C 228.515,133.868 227.849,117.868 228.5,101.5C 227.167,101.5 225.833,101.5 224.5,101.5C 224.5,118.167 224.5,134.833 224.5,151.5C 232.86,151.831 241.193,151.498 249.5,150.5C 248.311,149.571 246.978,149.238 245.5,149.5C 246.919,148.549 248.585,148.216 250.5,148.5C 250.5,149.833 250.5,151.167 250.5,152.5C 241.5,152.5 232.5,152.5 223.5,152.5C 223.5,135.167 223.5,117.833 223.5,100.5C 225.833,100.5 228.167,100.5 230.5,100.5C 229.19,116.832 229.19,133.166 230.5,149.5 Z"/></g>
<g><path style="opacity:1" fill="#2c8d3d" d="M 230.5,149.5 C 235.5,149.5 240.5,149.5 245.5,149.5C 246.978,149.238 248.311,149.571 249.5,150.5C 241.193,151.498 232.86,151.831 224.5,151.5C 224.5,134.833 224.5,118.167 224.5,101.5C 225.833,101.5 227.167,101.5 228.5,101.5C 227.849,117.868 228.515,133.868 230.5,149.5 Z"/></g>
<g><path style="opacity:0.018" fill="#e8f3e9" d="M 119.5,151.5 C 121.403,151.796 123.07,152.463 124.5,153.5C 122.302,153.88 120.635,153.213 119.5,151.5 Z"/></g>
<g><path style="opacity:0.031" fill="#f3f8f4" d="M 290.5,138.5 C 290.833,138.5 291.167,138.5 291.5,138.5C 291.557,139.609 291.89,140.609 292.5,141.5C 293.83,144.803 295.163,148.136 296.5,151.5C 298.743,152.474 301.076,152.808 303.5,152.5C 303.5,151.5 303.5,150.5 303.5,149.5C 304.812,150.145 305.812,151.145 306.5,152.5C 302.833,153.833 299.167,153.833 295.5,152.5C 293.819,147.812 292.152,143.145 290.5,138.5 Z"/></g>
<g><path style="opacity:0.028" fill="#f1f6f2" d="M 337.5,146.5 C 339.67,147.838 341.336,149.672 342.5,152C 345.167,152.667 347.833,152.667 350.5,152C 349.748,151.329 349.414,150.496 349.5,149.5C 350.683,150.504 352.016,151.338 353.5,152C 349.691,153.588 345.691,153.922 341.5,153C 339.915,150.931 338.581,148.764 337.5,146.5 Z"/></g>
<g><path style="opacity:0.03" fill="#eff6ef" d="M 199.5,150.5 C 199.423,151.75 198.756,152.583 197.5,153C 194.313,153.001 191.48,153.834 189,155.5C 185.667,154.167 182.333,154.167 179,155.5C 177.009,154.008 174.842,153.008 172.5,152.5C 181.708,154.179 190.708,153.513 199.5,150.5 Z"/></g>
<g><path style="opacity:1" fill="#3b894b" d="M 89.5,94.5 C 90.1667,94.5 90.5,94.8333 90.5,95.5C 90.5,112.167 90.5,128.833 90.5,145.5C 90.3301,154.702 90.3301,163.702 90.5,172.5C 93.6248,173.479 96.9581,173.813 100.5,173.5C 100.5,169.833 100.5,166.167 100.5,162.5C 100.833,162.5 101.167,162.5 101.5,162.5C 101.5,165.833 101.5,169.167 101.5,172.5C 97.6273,174.43 93.294,175.097 88.5,174.5C 88.9034,162.502 89.2367,150.502 89.5,138.5C 89.5,123.833 89.5,109.167 89.5,94.5 Z"/></g>
<g><path style="opacity:0.004" fill="#fefffe" d="M 129.5,157.5 C 130.833,158.167 130.833,158.167 129.5,157.5 Z"/></g>
<g><path style="opacity:0.004" fill="#fefffe" d="M 134.5,159.5 C 134.897,158.475 135.563,158.308 136.5,159C 135.906,159.464 135.239,159.631 134.5,159.5 Z"/></g>
<g><path style="opacity:0.055" fill="#fbfdfb" d="M 220.5,160.5 C 217.941,160.198 215.607,160.532 213.5,161.5C 212.391,161.557 211.391,161.89 210.5,162.5C 209.398,160.908 210.065,160.075 212.5,160C 215.367,159.199 218.034,159.366 220.5,160.5 Z"/></g>
<g><path style="opacity:0.004" fill="#fefffe" d="M 134.5,160.5 C 135.833,161.167 135.833,161.167 134.5,160.5 Z"/></g>
<g><path style="opacity:0.004" fill="#fefffe" d="M 136.5,160.5 C 137.525,160.897 137.692,161.563 137,162.5C 136.536,161.906 136.369,161.239 136.5,160.5 Z"/></g>
<g><path style="opacity:0.71" fill="#b2c7b6" d="M 149.5,160.5 C 147.735,161.461 145.735,161.795 143.5,161.5C 142.833,161.5 142.167,161.5 141.5,161.5C 141.5,161.167 141.5,160.833 141.5,160.5C 144.167,159.167 146.833,159.167 149.5,160.5 Z"/></g>
<g><path style="opacity:0.01" fill="#f3f6f4" d="M 149.5,160.5 C 152.124,162.198 152.124,164.031 149.5,166C 152.028,167.316 152.028,168.483 149.5,169.5C 149.709,170.086 150.043,170.586 150.5,171C 148.782,171.346 147.115,171.846 145.5,172.5C 144.818,171.757 144.151,171.091 143.5,170.5C 143.5,167.5 143.5,164.5 143.5,161.5C 145.735,161.795 147.735,161.461 149.5,160.5 Z M 146.5,166.5 C 146.586,165.504 146.252,164.671 145.5,164C 149.044,163.321 149.377,164.154 146.5,166.5 Z"/></g>
<g><path style="opacity:0.827" fill="#99b39d" d="M 239.5,160.5 C 239.631,161.239 239.464,161.906 239,162.5C 237.644,161.62 236.144,161.286 234.5,161.5C 234.5,161.167 234.5,160.833 234.5,160.5C 236.167,159.167 237.833,159.167 239.5,160.5 Z"/></g>
<g><path style="opacity:0.014" fill="#f9fbf9" d="M 239.5,160.5 C 241.308,161.918 241.975,163.918 241.5,166.5C 239.901,166.232 238.568,166.566 237.5,167.5C 235.973,167.573 234.973,166.906 234.5,165.5C 233.167,164.5 233.167,163.5 234.5,162.5C 234.5,162.167 234.5,161.833 234.5,161.5C 236.144,161.286 237.644,161.62 239,162.5C 239.464,161.906 239.631,161.239 239.5,160.5 Z"/></g>
<g><path style="opacity:0.017" fill="#e6f1e8" d="M 287.5,160.5 C 288.404,161.209 288.737,162.209 288.5,163.5C 286.167,163.5 283.833,163.5 281.5,163.5C 281.5,164.833 281.5,166.167 281.5,167.5C 280.387,166.054 280.22,164.387 281,162.5C 283.277,161.883 285.444,161.216 287.5,160.5 Z"/></g>
<g><path style="opacity:0.455" fill="#d7e0d9" d="M 321.5,160.5 C 320.833,161.167 320.167,161.833 319.5,162.5C 318.147,161.133 318.481,160.133 320.5,159.5C 321.107,159.624 321.44,159.957 321.5,160.5 Z"/></g>
<g><path style="opacity:0.024" fill="#fdfefd" d="M 331.5,160.5 C 331.666,164.846 331.499,169.179 331,173.5C 330.617,174.056 330.117,174.389 329.5,174.5C 330.06,169.695 330.727,165.029 331.5,160.5 Z"/></g>
<g><path style="opacity:0.023" fill="#f6faf7" d="M 213.5,161.5 C 215.833,161.5 218.167,161.5 220.5,161.5C 220.833,162.167 221.167,162.833 221.5,163.5C 222.117,163.611 222.617,163.944 223,164.5C 223.801,167.367 223.634,170.034 222.5,172.5C 223.041,169.348 222.041,166.848 219.5,165C 218.256,164.544 217.423,165.044 217,166.5C 216.773,163.064 215.273,162.064 212.5,163.5C 212.833,162.833 213.167,162.167 213.5,161.5 Z"/></g>
<g><path style="opacity:0.015" fill="#dde7df" d="M 213.5,161.5 C 215.607,160.532 217.941,160.198 220.5,160.5C 223.358,160.595 225.691,161.762 227.5,164C 226.205,166.801 226.205,169.634 227.5,172.5C 227.145,173.522 226.478,174.189 225.5,174.5C 225.5,173.833 225.167,173.5 224.5,173.5C 225.569,170.592 225.736,167.592 225,164.5C 223.871,162.859 222.371,161.859 220.5,161.5C 218.167,161.5 215.833,161.5 213.5,161.5 Z"/></g>
<g><path style="opacity:0.037" fill="#fafcfa" d="M 321.5,160.5 C 322.064,164.008 323.064,167.508 324.5,171C 324.011,172.138 323.678,173.305 323.5,174.5C 322.833,174.167 322.167,173.833 321.5,173.5C 321.5,169.167 321.5,164.833 321.5,160.5 Z"/></g>
<g><path style="opacity:0.502" fill="#cee0d1" d="M 350.5,164.5 C 351.087,163.233 351.087,162.233 350.5,161.5C 349.479,163.188 348.145,164.521 346.5,165.5C 344.76,163.444 342.427,162.111 339.5,161.5C 339.709,160.914 340.043,160.414 340.5,160C 344.275,159.782 347.942,159.616 351.5,159.5C 354.223,161.623 353.889,163.29 350.5,164.5 Z"/></g>
<g><path style="opacity:0.04" fill="#fefffe" d="M 319.5,162.5 C 319.5,166.167 319.5,169.833 319.5,173.5C 318.761,173.631 318.094,173.464 317.5,173C 318.135,169.397 318.802,165.897 319.5,162.5 Z"/></g>
<g><path style="opacity:0.364" fill="#ebf3ed" d="M 192.5,163.5 C 190.983,163.489 189.816,162.823 189,161.5C 188.333,166.5 188.333,171.5 189,176.5C 189.498,173.518 189.665,170.518 189.5,167.5C 189.833,167.5 190.167,167.5 190.5,167.5C 190.232,169.099 190.566,170.432 191.5,171.5C 192.953,172.825 192.619,173.658 190.5,174C 191.167,174.667 191.833,175.333 192.5,176C 191.034,176.635 189.7,177.469 188.5,178.5C 187.503,171.866 187.17,165.2 187.5,158.5C 191.109,158.766 192.776,160.433 192.5,163.5 Z"/></g>
<g><path style="opacity:0.031" fill="#f8fcf9" d="M 210.5,162.5 C 208.378,166.015 208.045,169.681 209.5,173.5C 208.833,173.5 208.167,173.5 207.5,173.5C 207.927,170.212 207.26,167.212 205.5,164.5C 207.173,164.652 208.839,163.985 210.5,162.5 Z"/></g>
<g><path style="opacity:0.011" fill="#fcfdfc" d="M 201.5,176.5 C 201.666,171.489 201.499,166.489 201,161.5C 200.667,165.167 200.333,168.833 200,172.5C 199.283,171.956 198.783,171.289 198.5,170.5C 199.854,155.835 201.854,155.835 204.5,170.5C 204.383,173.05 203.383,175.05 201.5,176.5 Z"/></g>
<g><path style="opacity:0.004" fill="#fefffe" d="M 273.5,164.5 C 274.833,165.167 274.833,165.167 273.5,164.5 Z"/></g>
<g><path style="opacity:0.011" fill="#eff5f1" d="M 279.5,160.5 C 279.5,165.833 279.5,171.167 279.5,176.5C 282.187,176.664 284.854,176.497 287.5,176C 285.19,175.503 282.857,175.337 280.5,175.5C 280.279,172.721 280.612,170.054 281.5,167.5C 282.158,166.602 282.824,165.602 283.5,164.5C 283.295,168.265 284.128,168.265 286,164.5C 289.698,169.15 288.531,171.317 282.5,171C 284.932,169.913 284.598,169.413 281.5,169.5C 281.5,171.167 281.5,172.833 281.5,174.5C 283.833,174.5 286.167,174.5 288.5,174.5C 288.5,175.5 288.5,176.5 288.5,177.5C 285.167,177.5 281.833,177.5 278.5,177.5C 278.403,171.943 278.07,166.61 277.5,161.5C 277.957,160.702 278.624,160.369 279.5,160.5 Z"/></g>
<g><path style="opacity:0.936" fill="#54895b" d="M 321.5,160.5 C 321.5,164.833 321.5,169.167 321.5,173.5C 321.062,174.506 320.396,174.506 319.5,173.5C 319.5,169.833 319.5,166.167 319.5,162.5C 320.167,161.833 320.833,161.167 321.5,160.5 Z"/></g>
<g><path style="opacity:0.004" fill="#fefffe" d="M 136.5,167.5 C 136.369,166.761 136.536,166.094 137,165.5C 137.692,166.437 137.525,167.103 136.5,167.5 Z"/></g>
<g><path style="opacity:0.007" fill="#fefffe" d="M 174.5,165.5 C 175.643,168.976 175.81,172.642 175,176.5C 174.501,172.848 174.335,169.182 174.5,165.5 Z"/></g>
<g><path style="opacity:1" fill="#498957" d="M 220.5,161.5 C 222.371,161.859 223.871,162.859 225,164.5C 225.736,167.592 225.569,170.592 224.5,173.5C 223.075,175.031 222.409,174.698 222.5,172.5C 223.634,170.034 223.801,167.367 223,164.5C 222.617,163.944 222.117,163.611 221.5,163.5C 221.167,162.833 220.833,162.167 220.5,161.5 Z"/></g>
<g><path style="opacity:0.272" fill="#ecf5ee" d="M 306.5,173.5 C 306.824,169.445 306.491,165.445 305.5,161.5C 304.506,166.456 304.173,171.456 304.5,176.5C 307.187,176.664 309.854,176.497 312.5,176C 310.292,175.809 308.292,175.309 306.5,174.5C 309.681,174.002 312.347,174.835 314.5,177C 313.892,177.87 313.059,178.37 312,178.5C 309.23,177.652 306.397,177.319 303.5,177.5C 303.334,171.824 303.501,166.157 304,160.5C 304.718,159.549 305.551,159.383 306.5,160C 307.43,161.194 308.097,162.527 308.5,164C 307.217,166.848 307.217,169.682 308.5,172.5C 308.043,173.298 307.376,173.631 306.5,173.5 Z"/></g>
<g><path style="opacity:1" fill="#5f8e6a" d="M 350.5,164.5 C 348.478,166.531 346.811,168.865 345.5,171.5C 345.5,172.167 345.167,172.5 344.5,172.5C 343.733,173.172 343.066,174.005 342.5,175C 345.833,175.333 349.167,175.667 352.5,176C 350.5,176.167 348.5,176.333 346.5,176.5C 344.048,176.461 342.048,175.794 340.5,174.5C 341.906,174.027 342.573,173.027 342.5,171.5C 343.906,171.027 344.573,170.027 344.5,168.5C 345.906,168.027 346.573,167.027 346.5,165.5C 348.145,164.521 349.479,163.188 350.5,161.5C 351.087,162.233 351.087,163.233 350.5,164.5 Z"/></g>
<g><path style="opacity:0.017" fill="#fbfdfb" d="M 350.5,164.5 C 350.657,165.873 350.49,167.207 350,168.5C 348.415,169.376 347.415,170.709 347,172.5C 346.617,171.944 346.117,171.611 345.5,171.5C 346.811,168.865 348.478,166.531 350.5,164.5 Z"/></g>
<g><path style="opacity:0.015" fill="#f4f8f5" d="M 156.5,160.5 C 156.334,165.844 156.501,171.177 157,176.5C 157.333,172.5 157.667,168.5 158,164.5C 162.064,168.226 165.73,172.226 169,176.5C 169.667,171.5 169.667,166.5 169,161.5C 168.667,165.167 168.333,168.833 168,172.5C 165.289,169.627 162.789,166.627 160.5,163.5C 161.167,163.5 161.5,163.167 161.5,162.5C 162.5,162.5 163.5,162.5 164.5,162.5C 164.685,164.196 165.519,165.529 167,166.5C 167.333,164.5 167.667,162.5 168,160.5C 169.113,159.289 170.28,159.289 171.5,160.5C 172.292,164.721 172.625,169.054 172.5,173.5C 171.516,175.48 170.183,177.147 168.5,178.5C 167.797,175.316 165.797,173.816 162.5,174C 161.809,172.933 161.309,171.766 161,170.5C 160.333,171.833 159.667,171.833 159,170.5C 158.882,173.371 158.216,176.038 157,178.5C 155.84,174.634 155.007,170.634 154.5,166.5C 153.935,164.253 154.601,162.253 156.5,160.5 Z"/></g>
<g><path style="opacity:0.004" fill="#fefffe" d="M 164.5,161.5 C 163.833,160.167 163.833,160.167 164.5,161.5 Z"/></g>
<g><path style="opacity:0.009" fill="#fdfefd" d="M 161.5,162.5 C 160.833,162.5 160.5,162.833 160.5,163.5C 159.5,163.167 158.833,162.5 158.5,161.5C 160.196,159.871 161.196,160.204 161.5,162.5 Z"/></g>
<g><path style="opacity:1" fill="#61916b" d="M 158.5,161.5 C 158.833,162.5 159.5,163.167 160.5,163.5C 162.789,166.627 165.289,169.627 168,172.5C 168.333,168.833 168.667,165.167 169,161.5C 169.667,166.5 169.667,171.5 169,176.5C 165.73,172.226 162.064,168.226 158,164.5C 157.667,168.5 157.333,172.5 157,176.5C 156.501,171.177 156.334,165.844 156.5,160.5C 157.623,159.243 158.289,159.576 158.5,161.5 Z"/></g>
<g><path style="opacity:0.008" fill="#fefffe" d="M 164.5,161.5 C 165.833,162.167 165.833,162.167 164.5,161.5 Z"/></g>
<g><path style="opacity:0.377" fill="#eaf3ec" d="M 333.5,160.5 C 334.147,161.274 334.48,162.274 334.5,163.5C 334.099,167.024 333.433,170.358 332.5,173.5C 332.467,169.131 332.8,164.798 333.5,160.5 Z"/></g>
<g><path style="opacity:1" fill="#279039" d="M 90.5,172.5 C 90.3301,163.702 90.3301,154.702 90.5,145.5C 91.2414,140.625 92.0747,135.625 93,130.5C 93.3025,134.611 94.1358,138.611 95.5,142.5C 92.9417,149.632 92.9417,156.799 95.5,164C 95.2645,164.873 94.9312,165.707 94.5,166.5C 96.0778,167.072 97.5778,167.406 99,167.5C 99.4935,169.134 99.6602,170.801 99.5,172.5C 96.5,172.5 93.5,172.5 90.5,172.5 Z"/></g>
<g><path style="opacity:0.996" fill="#4d8558" d="M 213.5,161.5 C 213.167,162.167 212.833,162.833 212.5,163.5C 210.416,165.993 210.083,168.66 211.5,171.5C 211.5,171.833 211.5,172.167 211.5,172.5C 211.591,174.698 210.925,175.031 209.5,173.5C 208.045,169.681 208.378,166.015 210.5,162.5C 211.391,161.89 212.391,161.557 213.5,161.5 Z"/></g>
<g><path style="opacity:0.014" fill="#f7fbf8" d="M 234.5,160.5 C 234.5,160.833 234.5,161.167 234.5,161.5C 232.092,162.315 231.259,163.981 232,166.5C 234.326,168.066 236.492,169.732 238.5,171.5C 236.248,170.667 234.081,170.667 232,171.5C 231.385,169.884 230.385,168.551 229,167.5C 228.333,165.833 228.333,164.167 229,162.5C 229.333,162.833 229.667,163.167 230,163.5C 230.908,161.561 232.408,160.561 234.5,160.5 Z"/></g>
<g><path style="opacity:0.647" fill="#acc1b1" d="M 333.5,160.5 C 332.8,164.798 332.467,169.131 332.5,173.5C 332.715,175.179 332.048,176.179 330.5,176.5C 328.302,176.591 327.969,175.925 329.5,174.5C 330.117,174.389 330.617,174.056 331,173.5C 331.499,169.179 331.666,164.846 331.5,160.5C 332.167,159.167 332.833,159.167 333.5,160.5 Z"/></g>
<g><path style="opacity:0.259" fill="#f2f9f3" d="M 346.5,165.5 C 346.573,167.027 345.906,168.027 344.5,168.5C 344.427,166.973 345.094,165.973 346.5,165.5 Z"/></g>
<g><path style="opacity:0.022" fill="#eef4ef" d="M 136.5,167.5 C 133.875,168.441 133.875,169.607 136.5,171C 134.343,172.085 134.176,173.251 136,174.5C 136.423,173.044 137.256,172.544 138.5,173C 138.384,177.613 136.051,179.446 131.5,178.5C 131.649,177.448 131.483,176.448 131,175.5C 130.667,175.833 130.333,176.167 130,176.5C 129.751,175.376 129.251,174.376 128.5,173.5C 127.936,175.018 126.769,176.684 125,178.5C 123.295,176.023 121.295,174.689 119,174.5C 120.012,177.341 118.845,178.674 115.5,178.5C 114.945,171.934 115.779,165.601 118,159.5C 118.717,160.044 119.217,160.711 119.5,161.5C 117.466,163.655 117.133,165.988 118.5,168.5C 118.351,167.448 118.517,166.448 119,165.5C 120.497,169.165 122.497,172.498 125,175.5C 126.874,173.431 127.874,171.098 128,168.5C 127,169.833 126,171.167 125,172.5C 124.536,171.906 124.369,171.239 124.5,170.5C 122.412,168.664 121.079,166.331 120.5,163.5C 121.721,164.028 122.887,164.695 124,165.5C 125.558,164.655 126.558,165.321 127,167.5C 127.655,165.372 128.489,163.372 129.5,161.5C 130.479,160.235 131.479,158.901 132.5,157.5C 132.106,159.424 132.773,161.257 134.5,163C 134.043,163.414 133.709,163.914 133.5,164.5C 134.548,165.548 135.548,166.548 136.5,167.5 Z"/></g>
<g><path style="opacity:0.949" fill="#6c9a77" d="M 119.5,161.5 C 120.338,161.842 120.672,162.508 120.5,163.5C 121.079,166.331 122.412,168.664 124.5,170.5C 124.369,171.239 124.536,171.906 125,172.5C 126,171.167 127,169.833 128,168.5C 127.874,171.098 126.874,173.431 125,175.5C 122.497,172.498 120.497,169.165 119,165.5C 118.517,166.448 118.351,167.448 118.5,168.5C 117.133,165.988 117.466,163.655 119.5,161.5 Z"/></g>
<g><path style="opacity:0.004" fill="#fefffe" d="M 129.5,161.5 C 128.833,160.167 128.833,160.167 129.5,161.5 Z"/></g>
<g><path style="opacity:0.294" fill="#e7f4ea" d="M 212.5,163.5 C 212.918,164.222 213.584,164.722 214.5,165C 212.968,165.7 211.968,166.866 211.5,168.5C 212.791,169.527 212.791,170.527 211.5,171.5C 210.083,168.66 210.416,165.993 212.5,163.5 Z"/></g>
<g><path style="opacity:0.941" fill="#5a8c69" d="M 234.5,161.5 C 234.5,161.833 234.5,162.167 234.5,162.5C 233.167,163.5 233.167,164.5 234.5,165.5C 234.973,166.906 235.973,167.573 237.5,167.5C 240.746,169.563 241.246,172.23 239,175.5C 239.331,173.981 239.164,172.648 238.5,171.5C 236.492,169.732 234.326,168.066 232,166.5C 231.259,163.981 232.092,162.315 234.5,161.5 Z"/></g>
<g><path style="opacity:0.984" fill="#498258" d="M 270.5,162.5 C 271.324,165.764 271.658,169.098 271.5,172.5C 270.833,172.833 270.167,173.167 269.5,173.5C 271.109,169.857 270.776,166.524 268.5,163.5C 268.082,162.778 267.416,162.278 266.5,162C 267.928,161.421 269.262,161.588 270.5,162.5 Z"/></g>
<g><path style="opacity:0.627" fill="#d8e6db" d="M 270.5,162.5 C 272.067,163.681 272.901,165.347 273,167.5C 273.654,166.304 274.154,166.304 274.5,167.5C 272.525,168.749 272.191,170.249 273.5,172C 272.906,172.464 272.239,172.631 271.5,172.5C 271.658,169.098 271.324,165.764 270.5,162.5 Z"/></g>
<g><path style="opacity:0.894" fill="#5c8966" d="M 306.5,173.5 C 306.5,173.833 306.5,174.167 306.5,174.5C 308.292,175.309 310.292,175.809 312.5,176C 309.854,176.497 307.187,176.664 304.5,176.5C 304.173,171.456 304.506,166.456 305.5,161.5C 306.491,165.445 306.824,169.445 306.5,173.5 Z"/></g>
<g><path style="opacity:0.647" fill="#b7d2be" d="M 268.5,163.5 C 270.776,166.524 271.109,169.857 269.5,173.5C 268.685,175.908 267.019,176.741 264.5,176C 265.416,175.722 266.082,175.222 266.5,174.5C 269.669,171.315 270.336,167.649 268.5,163.5 Z"/></g>
<g><path style="opacity:0.004" fill="#fefffe" d="M 273.5,169.5 C 274.833,170.167 274.833,170.167 273.5,169.5 Z"/></g>
<g><path style="opacity:1" fill="#68946f" d="M 192.5,163.5 C 193.08,165.749 194.413,167.415 196.5,168.5C 196.833,169.5 197.5,170.167 198.5,170.5C 198.783,171.289 199.283,171.956 200,172.5C 200.333,168.833 200.667,165.167 201,161.5C 201.499,166.489 201.666,171.489 201.5,176.5C 200.833,176.167 200.167,175.833 199.5,175.5C 198.833,175.5 198.5,175.167 198.5,174.5C 196.252,170.746 193.419,167.412 190,164.5C 189.536,165.094 189.369,165.761 189.5,166.5C 189.5,166.833 189.5,167.167 189.5,167.5C 189.665,170.518 189.498,173.518 189,176.5C 188.333,171.5 188.333,166.5 189,161.5C 189.816,162.823 190.983,163.489 192.5,163.5 Z M 190.5,167.5 C 191.401,168.29 192.068,169.29 192.5,170.5C 191.833,170.5 191.5,170.833 191.5,171.5C 190.566,170.432 190.232,169.099 190.5,167.5 Z"/></g>
<g><path style="opacity:0.026" fill="#eff6f1" d="M 198.5,174.5 C 196.246,173.585 194.246,172.252 192.5,170.5C 192.068,169.29 191.401,168.29 190.5,167.5C 190.5,166.833 190.167,166.5 189.5,166.5C 189.369,165.761 189.536,165.094 190,164.5C 193.419,167.412 196.252,170.746 198.5,174.5 Z"/></g>
<g><path style="opacity:0.004" fill="#fefffe" d="M 197.5,163.5 C 198.833,164.167 198.833,164.167 197.5,163.5 Z"/></g>
<g><path style="opacity:0.013" fill="#f8fbf8" d="M 197.5,164.5 C 198.15,166.435 198.483,168.435 198.5,170.5C 197.5,170.167 196.833,169.5 196.5,168.5C 194.413,167.415 193.08,165.749 192.5,163.5C 194.3,162.395 195.467,163.061 196,165.5C 196.383,164.944 196.883,164.611 197.5,164.5 Z"/></g>
<g><path style="opacity:0.471" fill="#cfe4d6" d="M 344.5,168.5 C 344.573,170.027 343.906,171.027 342.5,171.5C 342.427,169.973 343.094,168.973 344.5,168.5 Z"/></g>
<g><path style="opacity:0.992" fill="#468554" d="M 131.5,161.5 C 132.82,165.981 133.82,170.648 134.5,175.5C 134.167,175.833 133.833,176.167 133.5,176.5C 132.239,172.939 131.406,169.272 131,165.5C 130.346,166.696 129.846,166.696 129.5,165.5C 130.18,164.14 130.847,162.807 131.5,161.5 Z"/></g>
<g><path style="opacity:0.524" fill="#b0ccb8" d="M 177.5,159.5 C 178.5,159.5 179.5,159.5 180.5,159.5C 181.511,165.516 181.177,171.516 179.5,177.5C 178.914,177.709 178.414,178.043 178,178.5C 177.5,172.175 177.334,165.842 177.5,159.5 Z"/></g>
<g><path style="opacity:0.008" fill="#fefffe" d="M 233.5,173.5 C 233.369,172.761 233.536,172.094 234,171.5C 234.692,172.437 234.525,173.103 233.5,173.5 Z"/></g>
<g><path style="opacity:0.875" fill="#6c9b74" d="M 141.5,161.5 C 142.167,161.5 142.833,161.5 143.5,161.5C 143.5,164.5 143.5,167.5 143.5,170.5C 143.5,171.833 143.5,173.167 143.5,174.5C 145.735,174.205 147.735,174.539 149.5,175.5C 147.052,176.473 144.385,176.806 141.5,176.5C 141.5,171.5 141.5,166.5 141.5,161.5 Z"/></g>
<g><path style="opacity:0.004" fill="#fefffe" d="M 159.5,172.5 C 160.573,173.251 160.74,174.251 160,175.5C 159.517,174.552 159.351,173.552 159.5,172.5 Z"/></g>
<g><path style="opacity:0.004" fill="#fefffe" d="M 207.5,173.5 C 206.833,174.167 206.833,174.167 207.5,173.5 Z"/></g>
<g><path style="opacity:0.4" fill="#dce9db" d="M 342.5,171.5 C 342.573,173.027 341.906,174.027 340.5,174.5C 340.427,172.973 341.094,171.973 342.5,171.5 Z"/></g>
<g><path style="opacity:0.512" fill="#d7e7d9" d="M 88.5,138.5 C 88.8333,138.5 89.1667,138.5 89.5,138.5C 89.2367,150.502 88.9034,162.502 88.5,174.5C 93.294,175.097 97.6273,174.43 101.5,172.5C 101.833,172.5 102.167,172.5 102.5,172.5C 104.009,174.68 103.509,176.347 101,177.5C 96.7594,174.949 92.4261,174.949 88,177.5C 87.5835,164.495 87.7501,151.495 88.5,138.5 Z"/></g>
<g><path style="opacity:0.965" fill="#759a7b" d="M 287.5,160.5 C 285.444,161.216 283.277,161.883 281,162.5C 280.22,164.387 280.387,166.054 281.5,167.5C 280.612,170.054 280.279,172.721 280.5,175.5C 282.857,175.337 285.19,175.503 287.5,176C 284.854,176.497 282.187,176.664 279.5,176.5C 279.5,171.167 279.5,165.833 279.5,160.5C 282.167,159.167 284.833,159.167 287.5,160.5 Z"/></g>
<g><path style="opacity:0.945" fill="#94af9b" d="M 319.5,173.5 C 320.396,174.506 321.062,174.506 321.5,173.5C 322.167,173.833 322.833,174.167 323.5,174.5C 324.167,174.5 324.5,174.833 324.5,175.5C 323.368,176.354 322.035,176.354 320.5,175.5C 319.662,175.158 319.328,174.492 319.5,173.5 Z"/></g>
<g><path style="opacity:0.325" fill="#eff5ef" d="M 141.5,160.5 C 141.5,160.833 141.5,161.167 141.5,161.5C 141.5,166.5 141.5,171.5 141.5,176.5C 144.385,176.806 147.052,176.473 149.5,175.5C 151.934,176.354 151.767,177.354 149,178.5C 145.935,178.828 143.102,178.495 140.5,177.5C 139.482,173.791 138.816,170.291 138.5,167C 138.859,164.37 139.859,162.203 141.5,160.5 Z"/></g>
<g><path style="opacity:0.039" fill="#f5faf6" d="M 199.5,175.5 C 200.167,175.833 200.833,176.167 201.5,176.5C 200.377,177.757 199.711,177.424 199.5,175.5 Z"/></g>
<g><path style="opacity:0.51" fill="#d2ddd3" d="M 211.5,172.5 C 215.294,176.386 218.961,176.386 222.5,172.5C 222.409,174.698 223.075,175.031 224.5,173.5C 225.167,173.5 225.5,173.833 225.5,174.5C 221.301,177.642 216.967,178.642 212.5,177.5C 210.771,176.764 209.771,175.43 209.5,173.5C 210.925,175.031 211.591,174.698 211.5,172.5 Z"/></g>
<g><path style="opacity:0.525" fill="#dae4dd" d="M 237.5,167.5 C 239.716,167.275 241.383,168.108 242.5,170C 241.736,172.069 241.236,174.236 241,176.5C 238.583,177.352 236.083,178.019 233.5,178.5C 231.73,177.144 230.064,175.644 228.5,174C 230.299,172.964 231.966,172.797 233.5,173.5C 233.811,174.478 234.478,175.145 235.5,175.5C 236.398,174.078 237.398,172.745 238.5,171.5C 239.164,172.648 239.331,173.981 239,175.5C 241.246,172.23 240.746,169.563 237.5,167.5 Z"/></g>
<g><path style="opacity:0.349" fill="#f0f5f1" d="M 270.5,162.5 C 269.262,161.588 267.928,161.421 266.5,162C 267.416,162.278 268.082,162.778 268.5,163.5C 266.643,166.018 264.81,166.018 263,163.5C 262.333,166.167 261.667,166.167 261,163.5C 261.018,167.331 260.852,171.331 260.5,175.5C 262.5,175.167 264.5,174.833 266.5,174.5C 266.082,175.222 265.416,175.722 264.5,176C 267.019,176.741 268.685,175.908 269.5,173.5C 270.167,173.167 270.833,172.833 271.5,172.5C 271.262,175.148 269.928,176.982 267.5,178C 264.167,177.333 260.833,177.333 257.5,178C 256.801,174.2 256.135,170.367 255.5,166.5C 256.833,165.167 256.833,163.833 255.5,162.5C 255.855,161.478 256.522,160.811 257.5,160.5C 262.057,159.245 266.723,159.412 271.5,161C 270.944,161.383 270.611,161.883 270.5,162.5 Z"/></g>
<g><path style="opacity:0.961" fill="#498b58" d="M 257.5,160.5 C 260.187,160.336 262.854,160.503 265.5,161C 263.567,161.251 261.734,161.751 260,162.5C 259.828,167.202 259.328,171.868 258.5,176.5C 257.505,171.208 257.172,165.875 257.5,160.5 Z"/></g>
<g><path style="opacity:0.522" fill="#e0e8e2" d="M 329.5,174.5 C 327.969,175.925 328.302,176.591 330.5,176.5C 326.939,179.117 323.605,178.784 320.5,175.5C 322.035,176.354 323.368,176.354 324.5,175.5C 326.216,175.371 327.883,175.038 329.5,174.5 Z"/></g>
<g><path style="opacity:0.32" fill="#eef4ef" d="M 344.5,172.5 C 347.008,174.237 350.008,175.07 353.5,175C 354.833,176 354.833,177 353.5,178C 348.584,178.252 343.584,178.418 338.5,178.5C 338.264,177.753 337.93,176.92 337.5,176C 338.527,175.487 339.527,174.987 340.5,174.5C 342.048,175.794 344.048,176.461 346.5,176.5C 348.5,176.333 350.5,176.167 352.5,176C 349.167,175.667 345.833,175.333 342.5,175C 343.066,174.005 343.733,173.172 344.5,172.5 Z"/></g>
<g><path style="opacity:0.004" fill="#fefffe" d="M 212.5,177.5 C 211.833,178.167 211.833,178.167 212.5,177.5 Z"/></g>
</svg>
